<?xml version="1.0" encoding="utf-8"?>
<!-- Generator: Adobe Illustrator 22.1.0, SVG Export Plug-In . SVG Version: 6.00 Build 0)  -->
<svg version="1.1" id="Layer_1" xmlns="http://www.w3.org/2000/svg" xmlns:xlink="http://www.w3.org/1999/xlink" x="0px" y="0px"
	 viewBox="0 0 235.7 236.1" style="enable-background:new 0 0 235.7 236.1;" xml:space="preserve">
<style type="text/css">
	.st0{fill:#FFFFFF;}
</style>
<g>
	<path class="st0" d="M117.9,231.8c-62.7,0-113.7-51-113.7-113.7S55.2,4.3,117.9,4.3c62.7,0,113.7,51,113.7,113.7
		S180.6,231.8,117.9,231.8z M117.9,9.8C58.2,9.8,9.6,58.3,9.6,118c0,59.7,48.6,108.3,108.3,108.3S226.2,177.7,226.2,118
		C226.2,58.3,177.6,9.8,117.9,9.8z"/>
	<path class="st0" d="M111.5,74.5L129.7,85l0,0l11.5,6.6h-7.2l-6-3.5h0l-15.4-8.9v12.4h-3.6V79.2l-15.4,8.9L81,95.2l24.1,0v3.6
		l-24.1,0l24.1,13.9v4.2l-29.1-16.8V118V138l3.6,2.1v-12h3.6v14.1l3.6,2.1v-12.5h3.6v14.5h-0.1l2.9,1.7l15.4,8.9v-12.2l3.6,2.2v10
		l8.5-4.9l1.7,1l1.9,1.1l-13,7.5l-0.9,0.5l-0.9-0.5l-18.2-10.5l-18.2-10.5l-0.9-0.5v-1v-21V97v-1l0.9-0.5L91.5,85l18.2-10.5l0.9-0.5
		L111.5,74.5L111.5,74.5z M112.4,124l42.4-25.1h-42.4V124L112.4,124z M159.7,100.2l-47.3,28v10.2l5.2,3.1l42-24.9V100.2L159.7,100.2
		z M159.7,120.8l-38.5,22.8l14.9,8.8l23.6-14V120.8L159.7,120.8z M108.8,114.9V97.1v-1.8h1.8h50.9h1.8v1.8v42.4v1l-0.9,0.5
		L137,156.1l-0.9,0.5l-0.9-0.5l-22.7-13.5v0l-3.6-2.2v0v-1v-20.4V114.9L108.8,114.9z"/>
</g>
</svg>
