<?xml version="1.0" encoding="utf-8"?>
<!-- Generator: Adobe Illustrator 22.1.0, SVG Export Plug-In . SVG Version: 6.00 Build 0)  -->
<svg version="1.1" id="Layer_1" xmlns="http://www.w3.org/2000/svg" xmlns:xlink="http://www.w3.org/1999/xlink" x="0px" y="0px"
	 viewBox="0 0 235.7 236.1" style="enable-background:new 0 0 235.7 236.1;" xml:space="preserve">
<style type="text/css">
	.st0{fill:#FFFFFF;}
</style>
<g>
	<path class="st0" d="M117.9,231.2C54.7,231.2,3.3,180.4,3.3,118C3.3,55.7,54.7,4.9,117.9,4.9c63.2,0,114.6,50.7,114.6,113.1
		C232.5,180.4,181.1,231.2,117.9,231.2z M117.9,10.4C57.7,10.4,8.7,58.7,8.7,118c0,59.4,49,107.7,109.2,107.7
		c60.2,0,109.2-48.3,109.2-107.7C227,58.7,178.1,10.4,117.9,10.4z"/>
	<path class="st0" d="M135.5,114.7v-3.5h-15.9v3.5h-3.5v-3.5h-15.9v7h51.1v-16.3l-33.5-16.5l-33.5,16.5v49.3h12.3v-3.5v-3.5v-3.5
		v-3.5v-3.5V132v-1.7h38.8h3.5v3.5v3.5v3.5v3.5v3.5v3.5h12.3v-26.1h3.5v26.1h3.5v3.5h-5.3h-1.8h-51.1h-3.5H84.4h-1.8h-5.3v-3.5h3.5
		v-50.4v-1.1l1-0.5l35.2-17.4l0.8-0.4l0.8,0.4l35.2,17.4l1,0.5v1.1v19.1v1.7h-1.8H98.5h-1.8v-1.7v-10.4v-1.7h1.8h38.8h1.8v1.7v5.2
		H135.5L135.5,114.7z M100.3,151.2h35.2v-3.5h-35.2V151.2L100.3,151.2z M100.3,144.2h35.2v-3.5h-35.2V144.2L100.3,144.2z
		 M100.3,137.3h35.2v-3.5h-35.2V137.3L100.3,137.3z"/>
</g>
</svg>
