<?xml version="1.0" encoding="utf-8"?>
<!-- Generator: Adobe Illustrator 22.1.0, SVG Export Plug-In . SVG Version: 6.00 Build 0)  -->
<svg version="1.1" id="Layer_1" xmlns="http://www.w3.org/2000/svg" xmlns:xlink="http://www.w3.org/1999/xlink" x="0px" y="0px"
	 viewBox="0 0 235.7 236.1" style="enable-background:new 0 0 235.7 236.1;" xml:space="preserve">
<style type="text/css">
	.st0{fill:#FFFFFF;}
</style>
<path class="st0" d="M117.9,231.4c-62.7,0-113.7-51-113.7-113.7S55.2,4,117.9,4c62.7,0,113.7,51,113.7,113.7
	S180.6,231.4,117.9,231.4z M117.9,9.4C58.2,9.4,9.6,58,9.6,117.7C9.6,177.4,58.2,226,117.9,226s108.3-48.6,108.3-108.3
	C226.2,58,177.6,9.4,117.9,9.4z"/>
<path class="st0" d="M66.5,141.4h22.7l-9.4-28.1l-0.8-2.5l2.6-0.8l34.2-10.5l0.8-0.2l0.8,0.2l34.2,10.5l2.5,0.8l-0.8,2.5l-8.8,28.2
	h24.7v5.3h-26.4l-1.6,5.3h12.2v5.3h-15.8H134H90.2v-5.3h45.5l11.8-37.8l-17.8-5.5v9h-5.3v-10.6l-7.9-2.4l-7.9,2.4v10.6h-5.3v-9
	l-17.7,5.5l9.1,27.2h19.2v-29h5.3v29h5.3v5.3H92.9H91H66.5V141.4L66.5,141.4z M85,104.5V88.7v-2.6h2.6h10.5V75.6v-2.6h2.6h13.2v-2.6
	v-2.6h2.6h15.8h2.6v2.6v15.8h10.5h2.6v2.6v15.8h-5.3V91.4H135h-2.6h-13.2v5.3h-5.3v-7.9v-2.6h2.6h13.2V72.9h-10.5v2.6v2.6h-2.6
	h-13.2v7.9h5.3v5.3h-7.9h-2.6h-7.9v13.2H85L85,104.5z M116.6,162.5H135v5.3h-18.4V162.5L116.6,162.5z"/>
</svg>
