<?xml version="1.0" encoding="utf-8"?>
<!-- Generator: Adobe Illustrator 22.1.0, SVG Export Plug-In . SVG Version: 6.00 Build 0)  -->
<svg version="1.1" id="Layer_1" xmlns="http://www.w3.org/2000/svg" xmlns:xlink="http://www.w3.org/1999/xlink" x="0px" y="0px"
	 viewBox="0 0 235.7 236.1" style="enable-background:new 0 0 235.7 236.1;" xml:space="preserve">
<style type="text/css">
	.st0{fill:#FFFFFF;}
</style>
<path class="st0" d="M118.3,231.3c-62.7,0-113.7-51-113.7-113.7S55.6,3.8,118.3,3.8C181,3.8,232,54.8,232,117.5
	S181,231.3,118.3,231.3z M118.3,9.3C58.6,9.3,10,57.8,10,117.5s48.6,108.3,108.3,108.3s108.3-48.6,108.3-108.3S178,9.3,118.3,9.3z"
	/>
<path class="st0" d="M160.8,135.6h-85H74l0-1.8l0.1-14.4l0-1.2l1.1-0.4l8.2-3.3l5.2-17.2l0.4-1.3h1.3h14.4V85v-1.8h1.8h48.8v3.6h-47
	v10.8v1.8h-1.8H91.7l-4.3,14.4h17.4v-10.8h3.6v10.8v1.8v12.6h-3.6v-10.8H85.3l-7.6,3L77.6,132h83.2V135.6L160.8,135.6z M130.1,124.8
	h21.7v3.6h-21.7V124.8L130.1,124.8z M140.9,139.2h16.3v3.6H150c0,2.5-1,4.8-2.6,6.4c-1.6,1.6-3.9,2.6-6.4,2.6c-2.5,0-4.7-1-6.4-2.6
	l0,0c-1.6-1.6-2.6-3.9-2.6-6.4H99.4c0,2.5-1,4.8-2.6,6.4c-1.6,1.6-3.9,2.6-6.4,2.6c-2.5,0-4.7-1-6.4-2.6l0,0
	c-1.6-1.6-2.6-3.9-2.6-6.4h-7.2v-3.6h10.8v3.6c0,1.5,0.6,2.9,1.6,3.8v0c1,1,2.3,1.6,3.8,1.6c1.5,0,2.9-0.6,3.8-1.6
	c1-1,1.6-2.3,1.6-3.8h-5.4v-3.6h45.2v3.6c0,1.5,0.6,2.9,1.6,3.8v0c1,1,2.3,1.6,3.8,1.6c1.5,0,2.9-0.6,3.8-1.6c1-1,1.6-2.3,1.6-3.8
	h-5.4V139.2L140.9,139.2z M128.3,103.1h25.3v3.6h-25.3V103.1L128.3,103.1z M133.7,95.9h28.9v3.6h-28.9V95.9L133.7,95.9z"/>
</svg>
