<?xml version="1.0" encoding="utf-8"?>
<!-- Generator: Adobe Illustrator 22.1.0, SVG Export Plug-In . SVG Version: 6.00 Build 0)  -->
<svg version="1.1" id="Layer_1" xmlns="http://www.w3.org/2000/svg" xmlns:xlink="http://www.w3.org/1999/xlink" x="0px" y="0px"
	 viewBox="0 0 79.8 68.6" style="enable-background:new 0 0 79.8 68.6;" xml:space="preserve">
<style type="text/css">
	.st0{fill:#7D7EB3;}
</style>
<path class="st0" d="M34.6,9.4c3.3,0,6.5,0.6,9.4,1.7l-3.7,2.1c-1.8-0.5-3.7-0.7-5.7-0.7c-1.1,0-2.1,0.1-3.1,0.2v4.7v0.9l-0.8,0.5
	l-6.5,3.7l0,0l-2.8,1.6l-0.6-1.8l-0.4-1.2l1.1-0.6l6.8-3.9v-3.1c-4,1.1-7.6,3.2-10.4,6.1C13.6,23.8,11,29.7,11,36.2
	c0,1.3,0.1,2.5,0.3,3.7l2.1-1.2l1-0.6l0.9,0.9l4.4,4.4l12.6-7.3L30,33.5l-6.3,1.4l-1.2,0.3L22,34.1l-1.2-2.3l-4.3,2.5L15,31.5
	l29.2-16.9l0,0l3.3-1.9l0,0l5.2-3h0L59,6.1l0.8-0.5l0.8,0.5l6.3,3.6h0l6.3,3.6l0.8,0.5v0.9V22v7.3v0.9l-0.8,0.5l-6.3,3.6h0l-5.5,3.2
	l0,0l-3.3,1.9l0,0L45,46.8l-1.6-2.7l13.1-7.6l-3.9-2.3h0l-2.4-1.4l3.1-1.8l0.8,0.5l0,0l3.9,2.3v-9.1l-7.9,4.5l0,0l-3.1,1.8l0,0
	L22,45.6l0,0l-2.8,1.6l0,0l-4,2.3l0,0l-2.7,1.6l0,0l-5,2.9l-1.6-2.7l4.9-2.9c-1.9-3.7-3-7.8-3-12.3c0-7.4,3-14.1,7.8-18.9
	C20.5,12.4,27.2,9.4,34.6,9.4L34.6,9.4z M16.9,45l-3-3L12,43.1c0.4,1.3,0.9,2.6,1.5,3.8L16.9,45L16.9,45z M35.1,34.5l10.5-6.1V22
	v-4.5l-22,12.7l0.7,1.4l6-1.3l0.9-0.2l0.6,0.7L35.1,34.5L35.1,34.5z M48.7,26.6l7.9-4.5l-7.9-4.5V22V26.6L48.7,26.6z M50.3,14.8
	l9.4,5.5l9.4-5.5l-3.9-2.3l0,0l-5.5-3.2l-5.5,3.2l0,0L50.3,14.8L50.3,14.8z M70.7,17.5l-9.4,5.4v10.9l3.9-2.3l0,0l5.5-3.2V22V17.5
	L70.7,17.5z M24.3,47.9l5,5l0.9-5.5l0.1-0.8l0.7-0.4l4.7-2.4l0-2.7l3.1-1.8l0,5.4l0,1l-0.9,0.4l-4.9,2.4l-1.1,6.4l-0.2,1.3h-1.3H29
	h-0.7L27.9,56l-6.4-6.4L24.3,47.9L24.3,47.9z M17.1,52.1c0.2,0.3,0.5,0.5,0.8,0.8c4.3,4.3,10.2,6.9,16.7,6.9
	c6.5,0,12.4-2.6,16.7-6.9c2.6-2.6,4.6-5.7,5.7-9.3l3.8-2.2c-1,5.3-3.7,10-7.3,13.7c-4.8,4.8-11.5,7.8-18.9,7.8
	c-7.4,0-14.1-3-18.9-7.8c-0.5-0.5-0.9-0.9-1.3-1.4L17.1,52.1L17.1,52.1z"/>
</svg>
