<?xml version="1.0" encoding="utf-8"?>
<!-- Generator: Adobe Illustrator 22.1.0, SVG Export Plug-In . SVG Version: 6.00 Build 0)  -->
<svg version="1.1" id="Layer_1" xmlns="http://www.w3.org/2000/svg" xmlns:xlink="http://www.w3.org/1999/xlink" x="0px" y="0px"
	 viewBox="0 0 62.8 55.6" style="enable-background:new 0 0 62.8 55.6;" xml:space="preserve">
<style type="text/css">
	.st0{fill:#7D7EB3;}
</style>
<g>
	<g>
		<path class="st0" d="M50.4,32.5c-0.3,0-0.5-0.1-0.7-0.3c-0.4-0.4-0.4-1.1,0-1.5l3.2-3.2c5.2-5.2,2.3-12.1-1.7-16.5
			c-1.4-1.6-3.1-2.9-4.7-3.8c-1.5-0.8-8.4-3.2-12.9,1.2l-9.7,9.7c-0.4,0.4-0.3,0.6-0.1,0.8c0.9,0.9,4.1,1.4,6-0.4l2.5-2.4
			c2.1-1.9,4.5-1.2,6.6-0.6c2.4,0.7,4.7,1.4,7.3-0.7c0.5-0.4,1.1-0.3,1.5,0.2c0.4,0.5,0.3,1.1-0.2,1.5c-3.5,2.8-6.7,1.8-9.2,1
			c-2.1-0.6-3.4-1-4.6,0.1L31.3,20c-2.8,2.7-7.3,2.1-9,0.4c-1.1-1.1-1.1-2.6,0.1-3.8L32.2,7c5-4.9,12.6-3.2,15.4-1.6
			c1.8,1,3.6,2.4,5.2,4.2c5.1,5.4,7.5,13.6,1.6,19.4l-3.2,3.2C51,32.4,50.7,32.5,50.4,32.5z"/>
		<path class="st0" d="M12.5,31c-0.3,0-0.5-0.1-0.7-0.3l-3.2-3.2c-6-6-3.6-13.9,1.1-18.7c5-5.1,13.3-7.2,19.2-1.4l2.2,2.2
			c0.4,0.4,0.4,1.1,0,1.5c-0.4,0.4-1.1,0.4-1.5,0l-2.2-2.2C22.2,3.8,15.3,6,11.2,10.3C7.1,14.3,5.1,21,10,26l3.2,3.2
			c0.4,0.4,0.4,1.1,0,1.5C13.1,30.9,12.8,31,12.5,31z"/>
		<path class="st0" d="M48.5,38.9c-1,0-2.1-0.4-3.1-1.4l-5.9-6.1c-0.4-0.4-0.4-1.1,0-1.5c0.4-0.4,1.1-0.4,1.5,0l5.9,6.1
			c1.3,1.3,2.3,0.7,2.8,0.3c0.8-0.8,1.2-2.3,0.2-3.2L37.4,19.9c-0.4-0.4-0.4-1.1,0-1.5c0.4-0.4,1.1-0.4,1.5,0l12.5,13.1
			c1.8,1.9,1.2,4.7-0.3,6.2C50.4,38.4,49.5,38.9,48.5,38.9z"/>
		<path class="st0" d="M43.7,43.3c-1,0-2-0.4-2.8-1.2l-6.5-6.6c-0.4-0.4-0.4-1.1,0-1.5c0.4-0.4,1.1-0.4,1.5,0l6.5,6.6
			c1,1,2.4,0.5,3.1-0.2c0.4-0.4,1.3-1.6-0.1-3l-6.3-6.5c-0.4-0.4-0.4-1.1,0-1.5c0.4-0.4,1.1-0.4,1.5,0l6.3,6.5c2.1,2.1,1.5,4.6,0,6
			C46.1,42.8,44.9,43.3,43.7,43.3z"/>
		<path class="st0" d="M38.5,47.3c-1,0-2-0.4-2.8-1.2l-3.2-3.3c-0.4-0.4-0.4-1.1,0-1.5c0.4-0.4,1.1-0.4,1.5,0l3.2,3.3
			c1,1,2.4,0.5,3.1-0.1c0.4-0.4,1.2-1.5-0.2-2.9c-0.4-0.4-0.4-1.1,0-1.5c0.4-0.4,1.1-0.4,1.5,0c2,2.1,1.5,4.5,0.1,5.9
			C40.9,46.8,39.7,47.3,38.5,47.3z"/>
		<path class="st0" d="M29,51.8c-1.1,0-2.1-0.4-2.9-1.2l-0.3-0.3c-0.8-0.8-1.2-1.9-1.2-3c-1.3,0.2-2.6-0.2-3.5-1.1l-0.3-0.3
			c-0.8-0.8-1.2-1.9-1.2-3c-1.3,0.2-2.7-0.2-3.6-1.1l-0.3-0.3c-0.9-0.9-1.3-2-1.2-3.2c-1.2,0.1-2.4-0.2-3.3-1.2l-0.3-0.3
			c-1.6-1.6-1.6-4.1,0-5.7l4.5-4.5c0.8-0.8,1.8-1.2,2.9-1.2c0,0,0,0,0,0c1.1,0,2.1,0.4,2.9,1.2l0.3,0.3c0.6,0.6,0.9,1.3,1.1,2
			l0.3-0.3c1.5-1.5,4.2-1.5,5.7,0v0l0.3,0.3c0.8,0.8,1.2,1.8,1.2,2.9c0,0.8-0.3,1.6-0.7,2.3c0.8,0.1,1.5,0.5,2.1,1.1v0l0.3,0.3
			c0.8,0.8,1.2,1.8,1.2,2.9c0,0.7-0.2,1.4-0.5,2c0.8,0.1,1.5,0.5,2.1,1.1l0.3,0.3c1.6,1.6,1.6,4.1,0,5.7l-3,3
			C31.1,51.4,30.1,51.8,29,51.8z M31.6,42.5c-0.5,0-1,0.2-1.4,0.6l-3,3c-0.8,0.8-0.8,2,0,2.8l0.3,0.3c0.7,0.7,2,0.7,2.7,0l3-3
			c0.8-0.8,0.8-2,0-2.7L33,43.1C32.7,42.7,32.2,42.5,31.6,42.5L31.6,42.5z M28.5,36.1c-0.5,0-1,0.2-1.4,0.6l-4.9,4.9
			c-0.8,0.8-0.8,2,0,2.8l0.3,0.3c0.7,0.7,2,0.7,2.8,0l4.9-4.9c0.4-0.4,0.6-0.9,0.6-1.4s-0.2-1-0.6-1.4l-0.3-0.3
			C29.5,36.3,29,36.1,28.5,36.1z M25.6,29.5c-0.5,0-1,0.2-1.4,0.6l-7.1,7.1c-0.4,0.4-0.6,0.9-0.6,1.4c0,0.5,0.2,1,0.6,1.4l0.3,0.3
			c0.7,0.7,2,0.7,2.7,0l7.1-7.1c0.4-0.4,0.6-0.9,0.6-1.4c0-0.5-0.2-1-0.6-1.4L27,30.1C26.6,29.7,26.1,29.5,25.6,29.5z M18.1,27.5
			c-0.5,0-1,0.2-1.4,0.6l-4.5,4.5c-0.8,0.8-0.8,2,0,2.8l0.3,0.3c0.7,0.7,2,0.7,2.7,0l4.5-4.5c0.7-0.7,0.7-2,0-2.8L19.5,28
			C19.1,27.7,18.6,27.5,18.1,27.5C18.1,27.5,18.1,27.5,18.1,27.5z"/>
	</g>
</g>
</svg>
