<?xml version="1.0" encoding="utf-8"?>
<!-- Generator: Adobe Illustrator 22.1.0, SVG Export Plug-In . SVG Version: 6.00 Build 0)  -->
<svg version="1.1" id="Layer_1" xmlns="http://www.w3.org/2000/svg" xmlns:xlink="http://www.w3.org/1999/xlink" x="0px" y="0px"
	 viewBox="0 0 76.6 75.8" style="enable-background:new 0 0 76.6 75.8;" xml:space="preserve">
<style type="text/css">
	.st0{fill:#020688;}
</style>
<path class="st0" d="M42.5,69.7H10H8.6v-1.4V13.2v-1.4H10h11.3v-1.4V9h1.4h4.8l1-2l0.4-0.8h0.9h5.6h0.9l0.4,0.8l1,2h4.8h1.4v1.4v1.4
	h11.3h1.4v1.4v25.4h-2.8v-24h-9.9v2.8v1.4h-1.4H24.2V16h16.9v-2.8v-1.4h-4.2H36L35.6,11l-1-2h-3.9l-1,2l-0.4,0.8h-0.9h-4.2v1.4v1.4
	h-1.4H11.5v52.2h31.1V69.7L42.5,69.7z M61.2,51.8l-7.9,7.9l-1,1l-1-1L46.5,55l2-2l3.8,3.8l6.9-6.9L61.2,51.8L61.2,51.8z M63.8,45.6
	c2.8,2.8,4.1,6.4,4.1,10c0,3.6-1.4,7.2-4.1,10l0,0c-2.8,2.8-6.4,4.1-10,4.1c-3.6,0-7.2-1.4-10-4.1l0,0l0,0c-2.8-2.8-4.1-6.4-4.1-10
	c0-3.6,1.4-7.2,4.1-10v0l0,0c2.8-2.8,6.4-4.1,10-4.1C57.4,41.5,61,42.8,63.8,45.6L63.8,45.6L63.8,45.6z M65.1,55.6
	c0-2.9-1.1-5.8-3.3-8c-2.2-2.2-5.1-3.3-8-3.3c-2.9,0-5.8,1.1-8,3.3l0,0l0,0c-2.2,2.2-3.3,5.1-3.3,8c0,2.9,1.1,5.8,3.3,8l0,0l0,0
	c2.2,2.2,5.1,3.3,8,3.3c2.9,0,5.8-1.1,8-3.3l0,0C64,61.4,65.1,58.5,65.1,55.6L65.1,55.6z M17.1,51.3h12.7v2.8H17.1V51.3L17.1,51.3z
	 M17.1,45.7h18.4v2.8H17.1V45.7L17.1,45.7z M17.1,37.2h31.1V40H17.1V37.2L17.1,37.2z M17.1,25.9h31.1v2.8H17.1V25.9L17.1,25.9z
	 M17.1,31.6h31.1v2.8H17.1V31.6L17.1,31.6z"/>
</svg>
