<?xml version="1.0" encoding="utf-8"?>
<!-- Generator: Adobe Illustrator 22.1.0, SVG Export Plug-In . SVG Version: 6.00 Build 0)  -->
<svg version="1.1" id="Layer_1" xmlns="http://www.w3.org/2000/svg" xmlns:xlink="http://www.w3.org/1999/xlink" x="0px" y="0px"
	 viewBox="0 0 69.2 68.6" style="enable-background:new 0 0 69.2 68.6;" xml:space="preserve">
<style type="text/css">
	.st0{fill:#7D7EB3;}
</style>
<path class="st0" d="M62.4,35.3c0.2-6-1.5-11.8-4.7-16.6c-3.2-4.8-7.9-8.5-13.6-10.6c-7.2-2.6-14.8-2.1-21.3,0.9
	C16.9,11.8,12,16.7,9.2,23h4.1v2.7H5.9H4.6v-1.3v-9h2.7v5.6c3.1-6.5,8.4-11.4,14.5-14.3c7.1-3.3,15.4-3.9,23.3-1
	c6.2,2.3,11.3,6.4,14.9,11.6c3.5,5.2,5.4,11.5,5.2,18.1L62.4,35.3L62.4,35.3z M17.4,33.4H24c0.1-2.7,0.5-5.2,1-7.4
	c-1.5-0.4-3-0.8-4.4-1.4C18.8,27.1,17.7,30.1,17.4,33.4L17.4,33.4z M26.7,33.4h6.6V27c-1.9-0.1-3.8-0.2-5.6-0.5
	C27.1,28.6,26.8,30.9,26.7,33.4L26.7,33.4z M35.9,33.4h6.6c-0.1-2.5-0.4-4.8-1-6.9c-1.8,0.3-3.7,0.5-5.6,0.5V33.4L35.9,33.4z
	 M45.2,33.4h6.6c-0.2-3.3-1.4-6.3-3.2-8.8c-1.4,0.5-2.9,1-4.4,1.4C44.7,28.2,45.1,30.7,45.2,33.4L45.2,33.4z M51.8,36h-6.6
	c-0.1,2.7-0.5,5.2-1,7.4c1.5,0.4,3,0.8,4.4,1.4C50.4,42.3,51.5,39.3,51.8,36L51.8,36z M42.5,36h-6.6v6.4c1.9,0.1,3.8,0.2,5.6,0.5
	C42.1,40.9,42.4,38.5,42.5,36L42.5,36z M33.3,36h-6.6c0.1,2.5,0.4,4.8,1,6.9c1.8-0.3,3.7-0.5,5.6-0.5V36L33.3,36z M24,36h-6.6
	c0.2,3.3,1.4,6.3,3.2,8.8c1.4-0.5,2.8-1,4.4-1.4C24.5,41.2,24.1,38.7,24,36L24,36z M35.9,17.7v6.6c1.6-0.1,3.3-0.2,4.8-0.4
	c-0.2-0.6-0.5-1.2-0.8-1.7C38.9,19.9,37.4,18.3,35.9,17.7L35.9,17.7z M35.9,45v6.6c1.5-0.6,2.9-2.2,4.1-4.4c0.3-0.5,0.5-1.1,0.8-1.7
	C39.2,45.3,37.6,45.1,35.9,45L35.9,45z M33.3,51.7V45c-1.6,0.1-3.3,0.2-4.8,0.4c0.2,0.6,0.5,1.2,0.8,1.7
	C30.4,49.5,31.8,51.1,33.3,51.7L33.3,51.7z M33.3,24.4v-6.6c-1.5,0.6-2.9,2.2-4.1,4.4c-0.3,0.5-0.5,1.1-0.8,1.7
	C30,24.2,31.6,24.3,33.3,24.4L33.3,24.4z M22.5,22.4c1.1,0.4,2.2,0.7,3.3,1c0.3-0.9,0.7-1.7,1-2.4c0.4-0.8,0.9-1.6,1.4-2.3
	C26.1,19.5,24.1,20.8,22.5,22.4L22.5,22.4z M43.4,23.4c1.2-0.3,2.3-0.6,3.3-1c-1.6-1.6-3.6-2.9-5.8-3.8c0.5,0.7,1,1.5,1.4,2.3
	C42.7,21.7,43.1,22.6,43.4,23.4L43.4,23.4z M46.7,47c-1.1-0.4-2.2-0.7-3.3-1c-0.3,0.9-0.7,1.7-1,2.4c-0.4,0.8-0.9,1.6-1.4,2.3
	C43.1,49.9,45.1,48.6,46.7,47L46.7,47z M25.8,46c-1.2,0.3-2.3,0.6-3.3,1c1.6,1.6,3.6,2.9,5.7,3.8c-0.5-0.7-1-1.5-1.4-2.3
	C26.5,47.7,26.1,46.9,25.8,46L25.8,46z M34.9,54.6c-0.1,0-0.2,0-0.2,0c-0.1,0-0.2,0-0.2,0c-5.4-0.1-10.3-2.3-13.8-5.8
	c-3.6-3.6-5.8-8.6-5.8-14.1c0-5.5,2.2-10.5,5.8-14.1c3.6-3.6,8.6-5.8,14.1-5.8c5.5,0,10.5,2.2,14.1,5.8c3.6,3.6,5.8,8.6,5.8,14.1
	c0,5.5-2.2,10.5-5.8,14.1C45.1,52.3,40.2,54.5,34.9,54.6L34.9,54.6z M62,53.3v-5.6c-3.1,6.5-8.4,11.4-14.5,14.3
	c-7.1,3.3-15.4,3.9-23.3,1C18,60.7,12.8,56.5,9.3,51.3c-3.5-5.2-5.4-11.5-5.2-18.1l2.6,0.1c-0.2,6,1.5,11.8,4.7,16.6
	c3.2,4.8,7.9,8.5,13.6,10.6c7.2,2.6,14.8,2.1,21.3-0.9c5.9-2.8,10.9-7.6,13.7-13.9h-4.1v-2.7h7.4h1.3v1.3v9H62L62,53.3z"/>
</svg>
