<?xml version="1.0" encoding="utf-8"?>
<!-- Generator: Adobe Illustrator 22.1.0, SVG Export Plug-In . SVG Version: 6.00 Build 0)  -->
<svg version="1.1" id="Layer_1" xmlns="http://www.w3.org/2000/svg" xmlns:xlink="http://www.w3.org/1999/xlink" x="0px" y="0px"
	 viewBox="0 0 73.4 75.9" style="enable-background:new 0 0 73.4 75.9;" xml:space="preserve">
<style type="text/css">
	.st0{fill:#020688;}
</style>
<path class="st0" d="M51.2,35.2v-2.9h-13v2.9h-2.9v-2.9h-13v5.8h42V24.4L36.7,10.7L9.2,24.4v41.2h10.1v-2.9v-2.9v-2.9V54v-2.9v-1.4
	v-1.4h31.9h2.9v2.9V54v2.9v2.9v2.9v2.9h10.1V43.9h2.9v21.7h2.9v2.9h-4.3h-1.4h-42h-2.9H9.2H7.7H3.4v-2.9h2.9v-42v-0.9l0.8-0.4
	l29-14.5l0.6-0.3l0.6,0.3l29,14.5l0.8,0.4v0.9v15.9V41h-1.4H20.8h-1.4v-1.4v-8.7v-1.4h1.4h31.9h1.4v1.4v4.3H51.2L51.2,35.2z
	 M22.2,65.6h29v-2.9h-29V65.6L22.2,65.6z M22.2,59.8h29v-2.9h-29V59.8L22.2,59.8z M22.2,54h29v-2.9h-29V54L22.2,54z"/>
</svg>
