<?xml version="1.0" encoding="utf-8"?>
<!-- Generator: Adobe Illustrator 22.1.0, SVG Export Plug-In . SVG Version: 6.00 Build 0)  -->
<svg version="1.1" id="Layer_1" xmlns="http://www.w3.org/2000/svg" xmlns:xlink="http://www.w3.org/1999/xlink" x="0px" y="0px"
	 viewBox="0 0 54.6 54.1" style="enable-background:new 0 0 54.6 54.1;" xml:space="preserve">
<style type="text/css">
	.st0{fill:#FFFFFF;}
	.st1{fill:#3B3CB6;}
</style>
<g>
	<path id="XMLID_3_" class="st0" d="M51.7,26.3c0-13-10.5-23.5-23.5-23.5c-13,0-23.5,10.5-23.5,23.5c0,13,10.5,23.5,23.5,23.5
		C41.2,49.8,51.7,39.3,51.7,26.3z"/>
	<path id="XMLID_2_" class="st1" d="M30.3,20.7v-2.2c0-1.1,0.7-1.3,1.2-1.3c0.5,0,3.1,0,3.1,0v-4.8l-4.3,0c-4.8,0-5.9,3.6-5.9,5.8
		v2.5h-2.8v5.6h2.8c0,6.3,0,13.9,0,13.9h5.6c0,0,0-7.7,0-13.9h4.1l0.5-5.6H30.3z"/>
</g>
</svg>
