<?xml version="1.0" encoding="utf-8"?>
<!-- Generator: Adobe Illustrator 22.1.0, SVG Export Plug-In . SVG Version: 6.00 Build 0)  -->
<svg version="1.1" id="Layer_1" xmlns="http://www.w3.org/2000/svg" xmlns:xlink="http://www.w3.org/1999/xlink" x="0px" y="0px"
	 viewBox="0 0 73.4 75.9" style="enable-background:new 0 0 73.4 75.9;" xml:space="preserve">
<style type="text/css">
	.st0{fill:#020688;}
</style>
<path class="st0" d="M23.4,18.6L23.4,18.6L23.4,18.6c3.3-1.2,6.7-1.7,9.9-1.6c0.8-2.8,2.3-5.5,4.5-7.7c3.5-3.5,8-5.2,12.5-5.2
	c4.5,0,9.1,1.7,12.5,5.2c3.5,3.5,5.2,8,5.2,12.5c0,4.5-1.7,9.1-5.2,12.5L59.3,38c1.5,6.3,0.7,12.7-1.9,18.2c-3,6.3-8.4,11.5-15.5,14
	l0,0l-0.1,0c-7.1,2.5-14.6,1.9-20.9-1.1c-6.3-3-11.5-8.4-14-15.5l0,0l0-0.1C4.3,46.5,4.9,39,7.9,32.7C10.9,26.3,16.3,21.2,23.4,18.6
	L23.4,18.6z M48.3,49l-2.2,2.2l3.5,4.7H54c0.2-0.4,0.4-0.7,0.6-1.1c2-4.3,2.8-9.2,2.1-14.1l-5,5l-1.1,1.1l-1.1-1.1L37.9,34.4
	c-3.5-3.5-5.2-8-5.2-12.5c0-0.5,0-1.1,0.1-1.6c-2.2,0-4.4,0.3-6.6,0.9l2.3,6.5l0.4,1.1l-0.9,0.7l-7,5.7l-2.7,5.6l3.1,2.9l4.5-1.6
	l0.6-0.2l0.6,0.3l3.1,1.5l4.8-1.7l1.5-0.5l0.5,1.5l1.9,5.4l0.3,0.9L38.5,50l-4,4.2l-0.7,9l-0.1,1.5h-1.5l-3.2,0l-0.7,0l-0.5-0.5
	l-8-8l-7.4-6.9l-3.3,0c0.2,1.1,0.5,2.1,0.9,3.2l0,0l0,0.1c2.2,6.3,6.8,11.1,12.4,13.7c5.6,2.7,12.2,3.2,18.4,1l0,0l0.1,0
	c4.6-1.6,8.3-4.5,11.1-8.1h-3.1H48l-0.5-0.6l-4.8-6.5l-0.8-1.1l1-1l3.2-3.2L48.3,49L48.3,49z M56.1,16.1c1.6,1.6,2.4,3.6,2.4,5.7
	c0,2.1-0.8,4.1-2.4,5.7v0c-1.6,1.6-3.6,2.4-5.7,2.4c-2.1,0-4.1-0.8-5.7-2.4c-1.6-1.6-2.4-3.6-2.4-5.7c0-2.1,0.8-4.1,2.4-5.7l0,0
	c1.6-1.6,3.6-2.4,5.7-2.4C52.5,13.8,54.6,14.6,56.1,16.1L56.1,16.1z M55.3,21.8c0-1.2-0.5-2.5-1.4-3.4c-0.9-0.9-2.2-1.4-3.4-1.4
	c-1.2,0-2.5,0.5-3.4,1.4h0c-0.9,0.9-1.4,2.2-1.4,3.4c0,1.2,0.5,2.5,1.4,3.4c0.9,0.9,2.2,1.4,3.4,1.4c1.2,0,2.5-0.5,3.4-1.4l0,0
	C54.8,24.3,55.3,23.1,55.3,21.8L55.3,21.8z M64.9,21.8c0-3.7-1.4-7.4-4.3-10.3c-2.8-2.8-6.5-4.3-10.3-4.3c-3.7,0-7.4,1.4-10.3,4.3
	c-2.8,2.8-4.3,6.5-4.3,10.3c0,3.7,1.4,7.4,4.3,10.3l10.3,10.3l10.3-10.3C63.5,29.3,64.9,25.6,64.9,21.8L64.9,21.8z M23.1,22.2
	c-5.6,2.4-9.8,6.7-12.2,11.8c-1.8,3.7-2.6,7.8-2.3,12l4.4,0h0.6l0.5,0.4l7.9,7.4l0,0l7.6,7.6l1.1,0l0.7-8.1l0-0.6l0.4-0.4l3.8-3.9
	l-1-2.9l-3.9,1.4l-0.6,0.2l-0.6-0.3l-3.1-1.5l-4.8,1.7l-0.9,0.3l-0.7-0.7l-4.6-4.4l-0.8-0.8l0.5-1l3.3-6.9l0.2-0.3l0.3-0.2l6.4-5.2
	L23.1,22.2L23.1,22.2z"/>
</svg>
