<?xml version="1.0" encoding="utf-8"?>
<!-- Generator: Adobe Illustrator 22.1.0, SVG Export Plug-In . SVG Version: 6.00 Build 0)  -->
<svg version="1.1" id="Layer_1" xmlns="http://www.w3.org/2000/svg" xmlns:xlink="http://www.w3.org/1999/xlink" x="0px" y="0px"
	 viewBox="0 0 85 83.2" style="enable-background:new 0 0 85 83.2;" xml:space="preserve">
<style type="text/css">
	.st0{fill:#020688;}
</style>
<path class="st0" d="M77.8,56.6H7.3H5.8l0-1.5l0.1-12l0-1l0.9-0.4l6.8-2.7l4.3-14.3l0.3-1.1h1.1h12v-9v-1.5h1.5h40.5v3h-39v9v1.5
	h-1.5H20.4l-3.6,12h14.5v-9h3v9v1.5v10.5h-3v-9H15.1l-6.3,2.5l-0.1,9.5h69V56.6L77.8,56.6z M52.3,47.6h18v3h-18V47.6L52.3,47.6z
	 M61.3,59.6h13.5v3h-6c0,2.1-0.8,3.9-2.2,5.3c-1.4,1.4-3.2,2.2-5.3,2.2c-2.1,0-3.9-0.8-5.3-2.2l0,0c-1.4-1.4-2.2-3.2-2.2-5.3h-27
	c0,2.1-0.8,3.9-2.2,5.3c-1.4,1.4-3.2,2.2-5.3,2.2c-2.1,0-3.9-0.8-5.3-2.2l0,0c-1.4-1.4-2.2-3.2-2.2-5.3h-6v-3h9v3
	c0,1.2,0.5,2.4,1.3,3.2v0c0.8,0.8,1.9,1.3,3.2,1.3c1.2,0,2.4-0.5,3.2-1.3c0.8-0.8,1.3-1.9,1.3-3.2h-4.5v-3h37.5v3
	c0,1.2,0.5,2.4,1.3,3.2v0c0.8,0.8,1.9,1.3,3.2,1.3c1.2,0,2.4-0.5,3.2-1.3c0.8-0.8,1.3-1.9,1.3-3.2h-4.5V59.6L61.3,59.6z M50.8,29.6
	h21v3h-21V29.6L50.8,29.6z M55.3,23.6h24v3h-24V23.6L55.3,23.6z"/>
</svg>
