<?xml version="1.0" encoding="utf-8"?>
<!-- Generator: Adobe Illustrator 22.1.0, SVG Export Plug-In . SVG Version: 6.00 Build 0)  -->
<svg version="1.1" id="Layer_1" xmlns="http://www.w3.org/2000/svg" xmlns:xlink="http://www.w3.org/1999/xlink" x="0px" y="0px"
	 viewBox="0 0 93.1 92.3" style="enable-background:new 0 0 93.1 92.3;" xml:space="preserve">
<style type="text/css">
	.st0{fill:#020688;}
</style>
<path class="st0" d="M4,65.8h18.8L15,42.4l-0.7-2.1l2.1-0.7l28.4-8.7l0.6-0.2l0.6,0.2l28.4,8.7l2.1,0.6L76,42.4l-7.3,23.4h20.5v4.4
	H67.3l-1.4,4.4h10.1v4.4H63h-3H23.6v-4.4h37.7l9.8-31.3l-14.7-4.5v7.5H52v-8.8l-6.6-2l-6.6,2v8.8h-4.4v-7.5l-14.7,4.5l7.5,22.6h15.9
	v-24h4.4v24H52v4.4H25.8h-1.6H4V65.8L4,65.8z M19.3,35.2V22.1v-2.2h2.2h8.7v-8.7V9h2.2h10.9V6.8V4.6h2.2h13.1h2.2v2.2v13.1h8.7h2.2
	v2.2v13.1h-4.4V24.3h-6.6h-2.2H47.7v4.4h-4.4v-6.6v-2.2h2.2h10.9V9h-8.7v2.2v2.2h-2.2H34.6v6.6h4.4v4.4h-6.6h-2.2h-6.6v10.9H19.3
	L19.3,35.2z M45.5,83.3h15.3v4.4H45.5V83.3L45.5,83.3z"/>
</svg>
