<?xml version="1.0" encoding="utf-8"?>
<!-- Generator: Adobe Illustrator 22.1.0, SVG Export Plug-In . SVG Version: 6.00 Build 0)  -->
<svg version="1.1" id="Layer_1" xmlns="http://www.w3.org/2000/svg" xmlns:xlink="http://www.w3.org/1999/xlink" x="0px" y="0px"
	 viewBox="0 0 85 83.2" style="enable-background:new 0 0 85 83.2;" xml:space="preserve">
<style type="text/css">
	.st0{fill:#020688;}
</style>
<path class="st0" d="M37.2,5.5l15.1,8.7l0,0l9.5,5.5h-6l-5-2.9h0L38,9.4v10.3h-3V9.4l-12.8,7.4l-10.2,5.9l20,0v3l-20,0l20,11.6v3.5
	L7.8,26.8v14.8v16.5l3,1.7V50h3v11.7l3,1.7V53h3V65h-0.1l2.4,1.4L35,73.8V63.7l3,1.8v8.3l7.1-4.1l1.4,0.8l1.6,0.9l-10.8,6.2
	l-0.8,0.4l-0.8-0.4L20.6,69L5.6,60.3l-0.8-0.4V59V41.6V24.2v-0.9l0.8-0.4l15.1-8.7l15.1-8.7L36.5,5L37.2,5.5L37.2,5.5z M38,46.5
	l35.2-20.8H38V46.5L38,46.5z M77.2,26.8L38,50v8.4l4.3,2.6l34.9-20.6V26.8L77.2,26.8z M77.2,43.9L45.3,62.8l12.3,7.3l19.6-11.6V43.9
	L77.2,43.9z M35,39V24.2v-1.5h1.5h42.2h1.5v1.5v35.1v0.9l-0.7,0.4L58.3,73.2l-0.8,0.5l-0.8-0.5L38,62v0l-3-1.8v0v-0.9V42.5V39L35,39
	z"/>
</svg>
