<?xml version="1.0" encoding="utf-8"?>
<!-- Generator: Adobe Illustrator 22.1.0, SVG Export Plug-In . SVG Version: 6.00 Build 0)  -->
<svg version="1.1" id="Layer_1" xmlns="http://www.w3.org/2000/svg" xmlns:xlink="http://www.w3.org/1999/xlink" x="0px" y="0px"
	 viewBox="0 0 201 142.5" style="enable-background:new 0 0 201 142.5;" xml:space="preserve">
<style type="text/css">
	.st0{fill:#7D7EB3;}
	.st1{fill:#3B3CB6;}
</style>
<g>
	<g>
		<path class="st0" d="M49.5,61.3c0.2-1,0.4-2.1,0.7-3.1c-1.4-0.1-2.2-0.7-3.2-1.4c-1.3-1-2.9-2.2-5.9-2.2c-3,0-4.6,1.2-5.9,2.2
			c-1.1,0.8-1.9,1.4-3.8,1.4c-1.8,0-2.6-0.6-3.8-1.4c-1.3-1-2.9-2.2-5.9-2.2s-4.6,1.2-5.9,2.2c-1.1,0.8-1.9,1.4-3.8,1.4
			c-1.8,0-2.6-0.6-3.8-1.4c-0.9-0.7-2.1-1.5-3.8-1.9c0.2,1.4,0.4,2.8,0.7,4.2c0.3,0.2,0.6,0.4,0.9,0.6c1.3,1,2.9,2.2,5.9,2.2
			c3,0,4.6-1.2,5.9-2.2c1.1-0.8,1.9-1.4,3.8-1.4c1.8,0,2.6,0.6,3.8,1.4c1.3,1,2.9,2.2,5.9,2.2c3,0,4.6-1.2,5.9-2.2
			c1.1-0.8,1.9-1.4,3.8-1.4c1.8,0,2.6,0.6,3.8,1.4c1.1,0.8,2.4,1.8,4.6,2.1C49.5,61.6,49.5,61.5,49.5,61.3z"/>
		<path class="st0" d="M48.9,70.7c-0.7-0.3-1.3-0.7-1.9-1.2c-1.3-1-2.9-2.2-5.9-2.2c-3,0-4.6,1.2-5.9,2.2C34,70.4,33.2,71,31.4,71
			c-1.8,0-2.6-0.6-3.8-1.4c-1.3-1-2.9-2.2-5.9-2.2s-4.6,1.2-5.9,2.2c-1.1,0.8-1.9,1.4-3.8,1.4c-1.8,0-2.6-0.6-3.8-1.4
			c-0.9-0.7-2.1-1.5-3.8-1.9c0.2,1.4,0.4,2.8,0.7,4.2C5.4,72,5.7,72.2,6,72.4c1.3,1,2.9,2.2,5.9,2.2c3,0,4.6-1.2,5.9-2.2
			c1.1-0.8,1.9-1.4,3.8-1.4c1.8,0,2.6,0.6,3.8,1.4c1.3,1,2.9,2.2,5.9,2.2c3,0,4.6-1.2,5.9-2.2c1.1-0.8,1.9-1.4,3.8-1.4
			c1.8,0,2.6,0.6,3.8,1.4c1,0.8,2.2,1.6,4.1,2C49,73.2,49,71.9,48.9,70.7z"/>
		<path class="st0" d="M50.2,86.8c-0.3-1.3-0.5-1.7-0.7-3.2c0-0.1-0.9-0.3-1-0.4c-0.6-0.3-1-0.6-1.6-1c-1.3-1-2.9-2.2-5.9-2.2
			c-3,0-4.6,1.2-5.9,2.2c-1.1,0.8-1.9,1.4-3.8,1.4c-1.8,0-2.6-0.6-3.8-1.4c-1.3-1-2.9-2.2-5.9-2.2s-4.6,1.2-5.9,2.2
			c-1.1,0.8-1.9,1.4-3.8,1.4c-1.8,0-2.6-0.6-3.8-1.4c-0.9-0.7-2.1-1.5-3.8-1.9c0.2,1.4,0.4,2.8,0.7,4.2c0.3,0.2,0.6,0.4,0.9,0.6
			c1.3,1,2.9,2.2,5.9,2.2c3,0,4.6-1.2,5.9-2.2c1.1-0.8,1.9-1.4,3.8-1.4c1.8,0,2.6,0.6,3.8,1.4c1.3,1,2.9,2.2,5.9,2.2
			c3,0,4.6-1.2,5.9-2.2c1.1-0.8,1.9-1.4,3.8-1.4c1.8,0,2.6,0.6,3.8,1.4c1.2,0.9,3,2,5.5,2.2C50.3,87.2,50.3,86.9,50.2,86.8z"/>
	</g>
	<path class="st1" d="M173.1,108.6c23.1-14.2,30.2-30.6,21.7-50.1c-6.6-15.2-16.5-23-33.5-32.8c-2.8-1.6-5-1.5-6-1
		c-0.3,0.2-0.6,0.4-0.6,0.9c0,0.6,0.6,1.5,2.1,2.3c2.4,1.4,6.9,4.8,10,7.3c7.1,5.8,7.1,6.6,7.1,7.3c0,0.6-0.3,1.1-0.8,1.4
		c-0.9,0.5-1.8,0-4.1-1.4c-1.5-0.9-3.4-2.2-5.6-3.7c-5.4-3.7-12.8-8.7-16.6-10.2c-3-1.2-5.4-0.4-6.1,1c-0.7,1.4,0.5,3.1,3,4.5
		c3.9,2.1,9.9,6,15.1,9.6c2.7,1.9,4.9,3.5,6.5,4.8c2,1.7,3.4,3,2.7,4.4c-0.2,0.4-0.6,0.7-1,0.9c-1.3,0.4-3-0.4-13.3-6.3
		c-5.2-3-11-6.3-15.3-8.3c-3-1.4-5.3-1.3-6,0.2c-0.8,1.6,0.2,4.4,2.7,5.7c2.8,1.5,9.5,5.2,15.7,8.9c3.4,2.1,6.1,3.8,8,5.2
		c3.1,2.2,4,3.3,3.9,4.6c-0.1,0.7-0.6,1.3-1.4,1.6c-2.5,0.7-6.7-1.7-14-6.1c-3.6-2.2-7.3-4.4-10.2-5.7c-2.3-1-4-0.8-4.6,0.4
		c-0.8,1.5,0,4.1,2.4,5.5c1.3,0.8,2.8,1.6,4.4,2.5c5.3,3,12.5,7,23.3,14.4c5.5,3.8,8.5,8.2,8.8,13.1c0.4,5.5-2.9,10.5-5.8,13.1
		c-5.3,4.8-5.9,7.3-5.4,8C161.5,112.1,168.1,111.7,173.1,108.6z"/>
	<path class="st1" d="M158,112.3c-2-2.7-0.1-6.7,5.8-11.9l0,0c2.4-2.2,5.2-6.3,4.9-10.7c-0.3-3.9-2.8-7.6-7.6-10.9
		c-10.6-7.3-17.8-11.3-23-14.3c-1.7-0.9-3.1-1.8-4.5-2.6c-3.1-1.8-5.3-5.9-3.5-9.3c1.1-2.2,3.9-3.8,8.4-1.8
		c3.1,1.4,6.9,3.6,10.6,5.8c2.6,1.5,5,3,7.1,4.1c-1.7-1.2-4.1-2.7-7.6-4.8c-5.9-3.5-12.2-7-14.7-8.3c-4.1-2.2-5.4-6.7-3.9-9.6
		c1.2-2.4,4.4-4.1,9.9-1.6c4.4,2,10.3,5.4,15.5,8.4c0.3,0.2,0.6,0.3,0.9,0.5c-4.6-3.1-9.9-6.6-13.8-8.7c-4.8-2.6-5.3-6.2-4.2-8.3
		c0.7-1.4,2.1-2.5,3.9-3c1.8-0.5,3.9-0.3,6,0.6c1.3,0.5,2.9,1.4,4.8,2.5c-0.8-1.1-1-2.1-1-2.7c0-1.2,0.5-2.3,1.5-3.1
		C142.4,13.6,128.3,8.3,113,8.3c-30.6,0-56.2,21.4-62.7,50c0,0,0,0,0,0c1.8,0,2.6-0.6,3.8-1.4c1.3-1,2.9-2.2,5.9-2.2
		c3,0,4.6,1.2,5.9,2.2c1.1,0.8,1.9,1.4,3.8,1.4c1.8,0,2.6-0.6,3.8-1.4c1.3-1,2.9-2.2,5.9-2.2c3,0,4.6,1.2,5.9,2.2
		c1.1,0.8,1.9,1.4,3.8,1.4c0.9,0,1.6-0.2,2.2-0.4c3.1-8.8,10.6-17.5,24.1-25.8c8.2-5,23.7-4.8,9.1,8.4c-3.9,3.5-11.2,14.3,2.8,23.9
		c14,9.7,22,13.6,27.6,16.9c5.6,3.3,4.1,11.9-3.6,8.5c-7.7-3.4-19.9-12.6-23.2-11.7c-3.4,0.9,20.6,14.4,26.6,17.5
		c6,3.1,5,12.9-4.6,8.5c-9.6-4.4-27-15.8-27.7-14.4c-0.6,1.3,16,12.6,23.7,16.9c7.7,4.3,2.9,11-4.4,8.1c-6.8-2.8-24.1-15.9-25-15.4
		c-0.9,0.5,11.9,11,16.4,13.5c6.1,3.4,1.6,9.1-5.9,4.8C105.6,105,98.8,96.3,94,85.9c-1.1,0.7-2.6,1.4-4.9,1.4c-3,0-4.6-1.2-5.9-2.2
		c-1.1-0.8-1.9-1.4-3.8-1.4c-1.8,0-2.6,0.6-3.8,1.4c-1.3,1-2.9,2.2-5.9,2.2s-4.6-1.2-5.9-2.2c-1.1-0.8-1.9-1.4-3.8-1.4
		c-1.8,0-2.6,0.6-3.8,1.4c-1.3,1-2.9,2.2-5.9,2.2c6.6,28.5,32.2,49.7,62.7,49.7c19.6,0,37.2-8.8,49-22.7
		C160.2,114,158.8,113.4,158,112.3z"/>
	<path class="st1" d="M54.1,69.5c1.3-1,2.9-2.2,5.9-2.2c3,0,4.6,1.2,5.9,2.2c1.1,0.8,1.9,1.4,3.8,1.4c1.8,0,2.6-0.6,3.8-1.4
		c1.3-1,2.9-2.2,5.9-2.2c3,0,4.6,1.2,5.9,2.2c1.1,0.8,1.9,1.4,3.8,1.4c0.2,0,0.4,0,0.5,0c-0.3-3-0.1-6.1,0.5-9.1
		c-0.3,0-0.7,0.1-1.1,0.1c-3,0-4.6-1.2-5.9-2.2c-1.1-0.8-1.9-1.4-3.8-1.4c-1.8,0-2.6,0.6-3.8,1.4c-1.3,1-2.9,2.2-5.9,2.2
		c-3,0-4.6-1.2-5.9-2.2c-1.1-0.8-1.9-1.4-3.8-1.4c-1.8,0-2.6,0.6-3.8,1.4c-1.3,1-2.9,2.2-5.9,2.2c-0.3,0-0.5,0-0.8,0
		c-0.5,2.9-0.8,5.9-0.9,8.9c0.5,0.1,1,0.2,1.6,0.2C52.1,71,52.9,70.4,54.1,69.5z"/>
	<path class="st1" d="M60,80c3,0,4.6,1.2,5.9,2.2c1.1,0.8,1.9,1.4,3.8,1.4c1.8,0,2.6-0.6,3.8-1.4c1.3-1,2.9-2.2,5.9-2.2
		c3,0,4.6,1.2,5.9,2.2c1.1,0.8,1.9,1.4,3.8,1.4c1.6,0,2.5-0.5,3.4-1.2c-1.1-2.6-1.9-5.3-2.4-8c-0.3,0-0.7,0.1-1,0.1
		c-3,0-4.6-1.2-5.9-2.2c-1.1-0.8-1.9-1.4-3.8-1.4c-1.8,0-2.6,0.6-3.8,1.4c-1.3,1-2.9,2.2-5.9,2.2c-3,0-4.6-1.2-5.9-2.2
		C62.6,71.6,61.8,71,60,71c-1.8,0-2.6,0.6-3.8,1.4c-1.3,1-2.9,2.2-5.9,2.2c-0.6,0-1.1,0-1.6-0.1c0.1,3.1,0.4,6.2,0.9,9.2
		c0.2,0,0.5,0,0.7,0c1.8,0,2.6-0.6,3.8-1.4C55.4,81.2,57,80,60,80z"/>
</g>
</svg>
