<?xml version="1.0" encoding="utf-8"?>
<!-- Generator: Adobe Illustrator 22.1.0, SVG Export Plug-In . SVG Version: 6.00 Build 0)  -->
<svg version="1.1" id="Layer_1" xmlns="http://www.w3.org/2000/svg" xmlns:xlink="http://www.w3.org/1999/xlink" x="0px" y="0px"
	 viewBox="0 0 345 88.9" style="enable-background:new 0 0 345 88.9;" xml:space="preserve">
<style type="text/css">
	.st0{fill:#FFFFFF;}
</style>
<g>
	<g>
		<path class="st0" d="M137,54.3V24.2h9.2v21.7h12.9v8.4H137z"/>
		<path class="st0" d="M192.1,39.3c0,9.9-5.9,15.4-15.6,15.4c-9.7,0-15.6-5.5-15.6-15.4c0-10,5.9-15.7,15.6-15.7
			C186.2,23.7,192.1,29.3,192.1,39.3z M182.7,39.3c0-5-2.3-7.4-6.2-7.4c-3.9,0-6.2,2.4-6.2,7.4c0,4.8,2.4,7.2,6.2,7.2
			C180.4,46.5,182.7,44.1,182.7,39.3z"/>
		<path class="st0" d="M224.7,50.8c-5.6,2.9-10,4-14.9,4c-9.2,0-15.1-5.5-15.1-15.4c0-9.7,5.8-15.7,15.2-15.7c3.8,0,9,0.8,13.4,2.7
			l-2.2,6.9c-4-0.9-6.8-1.5-10.3-1.5c-4.2,0-6.7,2.9-6.7,7.6c0,4.8,2.3,7.5,6.1,7.5c2,0,4-0.1,6.5-0.9v-2.4h-6.8v-6.7h14.7V50.8z"/>
		<path class="st0" d="M228.8,54.3V24.2h9.2v30.1H228.8z"/>
		<path class="st0" d="M263.5,54.3l-11.3-15.3v15.3h-9.2V24.2h8.4l11.3,15.3V24.2h9.2v30.1H263.5z"/>
		<path class="st0" d="M303,51.4c-4.7,2.4-8.4,3.4-12.9,3.4c-9.3,0-15.2-5.5-15.2-15.4c0-10,5.9-15.7,15.7-15.7
			c3.8,0,7.7,0.9,11.4,2.7l-2.7,7c-3.9-1-6-1.4-8.3-1.4c-4.3,0-6.7,2.4-6.7,7.4c0,4.5,2.5,7.2,6.3,7.2c3.1,0,5.2-0.4,9.5-2L303,51.4
			z"/>
		<path class="st0" d="M335.3,39.3c0,9.9-5.9,15.4-15.6,15.4c-9.7,0-15.6-5.5-15.6-15.4c0-10,5.9-15.7,15.6-15.7
			C329.4,23.7,335.3,29.3,335.3,39.3z M325.9,39.3c0-5-2.3-7.4-6.2-7.4c-3.9,0-6.2,2.4-6.2,7.4c0,4.8,2.4,7.2,6.2,7.2
			C323.6,46.5,325.9,44.1,325.9,39.3z"/>
	</g>
	<g>
		<path class="st0" d="M177.4,61.1h0.9v5.7h3.5v0.8h-4.4V61.1z"/>
		<path class="st0" d="M182.2,65.2c0-1.5,1.1-2.5,2.6-2.5c1.5,0,2.6,1,2.6,2.5c0,1.5-1.1,2.5-2.6,2.5
			C183.3,67.7,182.2,66.6,182.2,65.2z M186.4,65.2c0-1-0.7-1.7-1.7-1.7c-0.9,0-1.7,0.7-1.7,1.7c0,1,0.7,1.7,1.7,1.7
			C185.7,66.9,186.4,66.2,186.4,65.2z"/>
		<path class="st0" d="M193.3,62.7v4.3c0,1.7-0.9,2.5-2.6,2.5c-0.9,0-1.8-0.3-2.3-0.7l0.4-0.7c0.5,0.4,1.2,0.6,1.9,0.6
			c1.2,0,1.7-0.5,1.7-1.7v-0.4c-0.4,0.5-1.1,0.8-1.8,0.8c-1.4,0-2.5-1-2.5-2.4c0-1.4,1.1-2.4,2.5-2.4c0.7,0,1.4,0.3,1.8,0.8v-0.8
			H193.3z M192.4,65c0-1-0.7-1.6-1.7-1.6c-1,0-1.7,0.6-1.7,1.6c0,0.9,0.7,1.6,1.7,1.6C191.7,66.6,192.4,66,192.4,65z"/>
		<path class="st0" d="M196,60.8h1.1l-1.6,1.2h-0.8L196,60.8z M195,62.7h0.9v4.9H195V62.7z"/>
		<path class="st0" d="M196.9,67.1l0.4-0.7c0.4,0.3,1.1,0.5,1.7,0.5c0.8,0,1.2-0.3,1.2-0.7c0-1.1-3.1-0.1-3.1-2.1
			c0-0.9,0.8-1.5,2.1-1.5c0.6,0,1.4,0.2,1.8,0.4l-0.4,0.7c-0.4-0.3-0.9-0.4-1.4-0.4c-0.8,0-1.2,0.3-1.2,0.7c0,1.2,3.1,0.2,3.1,2.1
			c0,0.9-0.8,1.5-2.1,1.5C198.2,67.7,197.4,67.4,196.9,67.1z"/>
		<path class="st0" d="M205,67.3c-0.3,0.2-0.7,0.3-1.1,0.3c-1,0-1.6-0.5-1.6-1.5v-2.7h-0.8v-0.7h0.8v-1.1h0.9v1.1h1.4v0.7h-1.4v2.7
			c0,0.5,0.3,0.8,0.8,0.8c0.3,0,0.5-0.1,0.7-0.2L205,67.3z"/>
		<path class="st0" d="M205.9,61.2c0-0.3,0.3-0.6,0.6-0.6s0.6,0.3,0.6,0.6c0,0.3-0.3,0.6-0.6,0.6C206.2,61.7,205.9,61.5,205.9,61.2z
			 M206.1,62.7h0.9v4.9h-0.9V62.7z"/>
		<path class="st0" d="M208.2,65.2c0-1.5,1.1-2.5,2.6-2.5c0.9,0,1.6,0.4,2,1l-0.7,0.4c-0.3-0.5-0.8-0.7-1.3-0.7
			c-1,0-1.7,0.7-1.7,1.7c0,1.1,0.7,1.7,1.7,1.7c0.5,0,1-0.2,1.3-0.7l0.7,0.4c-0.4,0.7-1.1,1.1-2,1.1
			C209.3,67.7,208.2,66.6,208.2,65.2z"/>
		<path class="st0" d="M217.8,64.6v3H217V67c-0.3,0.4-0.8,0.7-1.6,0.7c-1.1,0-1.8-0.6-1.8-1.4c0-0.8,0.5-1.4,2-1.4h1.4v-0.2
			c0-0.8-0.4-1.2-1.3-1.2c-0.6,0-1.2,0.2-1.6,0.5l-0.4-0.7c0.5-0.4,1.2-0.6,2-0.6C217.1,62.6,217.8,63.3,217.8,64.6z M217,66.1v-0.7
			h-1.4c-0.9,0-1.1,0.3-1.1,0.8c0,0.5,0.4,0.8,1.1,0.8C216.2,67,216.7,66.7,217,66.1z"/>
		<path class="st0" d="M222.1,61.1h0.9v6.5h-0.9V61.1z"/>
		<path class="st0" d="M229.5,64.8v2.8h-0.9v-2.7c0-1-0.5-1.4-1.3-1.4c-0.9,0-1.6,0.6-1.6,1.6v2.5h-0.9v-4.9h0.9v0.7
			c0.4-0.5,1-0.8,1.8-0.8C228.7,62.6,229.5,63.3,229.5,64.8z"/>
		<path class="st0" d="M234,67.3c-0.3,0.2-0.7,0.3-1.1,0.3c-1,0-1.6-0.5-1.6-1.5v-2.7h-0.8v-0.7h0.8v-1.1h0.9v1.1h1.4v0.7h-1.4v2.7
			c0,0.5,0.3,0.8,0.8,0.8c0.3,0,0.5-0.1,0.7-0.2L234,67.3z"/>
		<path class="st0" d="M239.3,65.4h-4c0.1,0.9,0.8,1.4,1.8,1.4c0.6,0,1.1-0.2,1.4-0.6l0.5,0.6c-0.4,0.5-1.1,0.8-1.9,0.8
			c-1.6,0-2.6-1-2.6-2.5c0-1.5,1-2.5,2.5-2.5c1.4,0,2.4,1,2.4,2.5C239.3,65.3,239.3,65.4,239.3,65.4z M235.3,64.8h3.2
			c-0.1-0.8-0.7-1.4-1.6-1.4C236,63.4,235.4,64,235.3,64.8z"/>
		<path class="st0" d="M243.2,62.6v0.9c-0.1,0-0.1,0-0.2,0c-1,0-1.6,0.6-1.6,1.7v2.5h-0.9v-4.9h0.9v0.8
			C241.7,62.9,242.3,62.6,243.2,62.6z"/>
		<path class="st0" d="M249,64.8v2.8h-0.9v-2.7c0-1-0.5-1.4-1.3-1.4c-0.9,0-1.6,0.6-1.6,1.6v2.5h-0.9v-4.9h0.9v0.7
			c0.4-0.5,1-0.8,1.8-0.8C248.1,62.6,249,63.3,249,64.8z"/>
		<path class="st0" d="M254.5,64.6v3h-0.8V67c-0.3,0.4-0.8,0.7-1.6,0.7c-1.1,0-1.8-0.6-1.8-1.4c0-0.8,0.5-1.4,2-1.4h1.4v-0.2
			c0-0.8-0.4-1.2-1.3-1.2c-0.6,0-1.2,0.2-1.6,0.5l-0.4-0.7c0.5-0.4,1.2-0.6,2-0.6C253.7,62.6,254.5,63.3,254.5,64.6z M253.6,66.1
			v-0.7h-1.4c-0.9,0-1.1,0.3-1.1,0.8c0,0.5,0.4,0.8,1.1,0.8C252.9,67,253.4,66.7,253.6,66.1z"/>
		<path class="st0" d="M255.7,65.2c0-1.5,1.1-2.5,2.6-2.5c0.9,0,1.6,0.4,2,1l-0.7,0.4c-0.3-0.5-0.8-0.7-1.3-0.7
			c-1,0-1.7,0.7-1.7,1.7c0,1.1,0.7,1.7,1.7,1.7c0.5,0,1-0.2,1.3-0.7l0.7,0.4c-0.4,0.7-1.1,1.1-2,1.1
			C256.8,67.7,255.7,66.6,255.7,65.2z"/>
		<path class="st0" d="M261.3,61.2c0-0.3,0.3-0.6,0.6-0.6c0.3,0,0.6,0.3,0.6,0.6c0,0.3-0.3,0.6-0.6,0.6
			C261.6,61.7,261.3,61.5,261.3,61.2z M261.5,62.7h0.9v4.9h-0.9V62.7z"/>
		<path class="st0" d="M263.6,65.2c0-1.5,1.1-2.5,2.6-2.5c1.5,0,2.6,1,2.6,2.5c0,1.5-1.1,2.5-2.6,2.5
			C264.7,67.7,263.6,66.6,263.6,65.2z M267.8,65.2c0-1-0.7-1.7-1.7-1.7c-0.9,0-1.7,0.7-1.7,1.7c0,1,0.7,1.7,1.7,1.7
			C267.1,66.9,267.8,66.2,267.8,65.2z"/>
		<path class="st0" d="M274.6,64.8v2.8h-0.9v-2.7c0-1-0.5-1.4-1.3-1.4c-0.9,0-1.6,0.6-1.6,1.6v2.5H270v-4.9h0.9v0.7
			c0.4-0.5,1-0.8,1.8-0.8C273.8,62.6,274.6,63.3,274.6,64.8z"/>
		<path class="st0" d="M280.2,64.6v3h-0.8V67c-0.3,0.4-0.8,0.7-1.6,0.7c-1.1,0-1.8-0.6-1.8-1.4c0-0.8,0.5-1.4,2-1.4h1.4v-0.2
			c0-0.8-0.4-1.2-1.3-1.2c-0.6,0-1.2,0.2-1.6,0.5l-0.4-0.7c0.5-0.4,1.2-0.6,2-0.6C279.4,62.6,280.2,63.3,280.2,64.6z M279.3,66.1
			v-0.7h-1.4c-0.9,0-1.1,0.3-1.1,0.8c0,0.5,0.4,0.8,1.1,0.8C278.5,67,279.1,66.7,279.3,66.1z"/>
		<path class="st0" d="M281.8,60.7h0.9v6.9h-0.9V60.7z"/>
		<path class="st0" d="M291.8,67.7l-0.9-0.9c-0.6,0.5-1.3,0.8-2.2,0.8c-1.3,0-2.3-0.7-2.3-1.7c0-0.8,0.5-1.4,1.6-2
			c-0.6-0.6-0.8-1-0.8-1.5c0-0.9,0.7-1.5,1.8-1.5c1,0,1.6,0.5,1.6,1.4c0,0.7-0.4,1.1-1.4,1.7l1.6,1.6c0.2-0.3,0.3-0.7,0.4-1.2
			l0.7,0.2c-0.1,0.6-0.3,1.1-0.6,1.5l0.9,0.9L291.8,67.7z M290.4,66.3l-1.8-1.8c-0.9,0.5-1.2,0.9-1.2,1.4c0,0.6,0.6,1,1.5,1
			C289.4,66.9,290,66.7,290.4,66.3z M288.1,62.5c0,0.3,0.1,0.6,0.7,1.1c0.9-0.5,1.1-0.8,1.1-1.2c0-0.4-0.3-0.7-0.9-0.7
			C288.5,61.7,288.1,62,288.1,62.5z"/>
		<path class="st0" d="M153.8,78l0.3-0.7c0.5,0.4,1.3,0.8,2.1,0.8c1.1,0,1.6-0.4,1.6-1c0-1.6-3.9-0.6-3.9-3c0-1,0.8-1.9,2.5-1.9
			c0.8,0,1.6,0.2,2.1,0.6l-0.3,0.7c-0.6-0.4-1.2-0.5-1.8-0.5c-1.1,0-1.6,0.5-1.6,1c0,1.6,3.9,0.6,3.9,3c0,1-0.8,1.8-2.5,1.8
			C155.3,78.8,154.4,78.5,153.8,78z"/>
		<path class="st0" d="M164.5,76.6h-4c0.1,0.9,0.8,1.4,1.8,1.4c0.6,0,1.1-0.2,1.4-0.6l0.5,0.6c-0.4,0.5-1.1,0.8-1.9,0.8
			c-1.6,0-2.6-1-2.6-2.5c0-1.5,1-2.5,2.5-2.5c1.4,0,2.4,1,2.4,2.5C164.5,76.4,164.5,76.5,164.5,76.6z M160.5,75.9h3.2
			c-0.1-0.8-0.7-1.4-1.6-1.4C161.2,74.5,160.6,75.1,160.5,75.9z"/>
		<path class="st0" d="M168.4,73.8v0.9c-0.1,0-0.1,0-0.2,0c-1,0-1.6,0.6-1.6,1.7v2.5h-0.9v-4.9h0.9v0.8
			C166.9,74.1,167.5,73.8,168.4,73.8z"/>
		<path class="st0" d="M174,73.8l-2.2,4.9H171l-2.2-4.9h0.9l1.7,3.9l1.7-3.9H174z"/>
		<path class="st0" d="M174.7,72.3c0-0.3,0.3-0.6,0.6-0.6s0.6,0.3,0.6,0.6c0,0.3-0.3,0.6-0.6,0.6C175,72.9,174.7,72.6,174.7,72.3z
			 M174.9,73.8h0.9v4.9h-0.9V73.8z"/>
		<path class="st0" d="M177,76.3c0-1.5,1.1-2.5,2.6-2.5c0.9,0,1.6,0.4,2,1l-0.7,0.4c-0.3-0.5-0.8-0.7-1.3-0.7c-1,0-1.7,0.7-1.7,1.7
			c0,1.1,0.7,1.7,1.7,1.7c0.5,0,1-0.2,1.3-0.7l0.7,0.4c-0.4,0.7-1.1,1.1-2,1.1C178.1,78.8,177,77.8,177,76.3z"/>
		<path class="st0" d="M182.6,72.3c0-0.3,0.3-0.6,0.6-0.6s0.6,0.3,0.6,0.6c0,0.3-0.3,0.6-0.6,0.6C182.9,72.9,182.6,72.6,182.6,72.3z
			 M182.8,73.8h0.9v4.9h-0.9V73.8z"/>
		<path class="st0" d="M184.9,76.3c0-1.5,1.1-2.5,2.6-2.5c1.5,0,2.6,1,2.6,2.5c0,1.5-1.1,2.5-2.6,2.5
			C186,78.8,184.9,77.8,184.9,76.3z M189.1,76.3c0-1-0.7-1.7-1.7-1.7c-0.9,0-1.7,0.7-1.7,1.7c0,1,0.7,1.7,1.7,1.7
			C188.4,78,189.1,77.3,189.1,76.3z"/>
		<path class="st0" d="M190.6,78.2l0.4-0.7c0.4,0.3,1.1,0.5,1.7,0.5c0.8,0,1.2-0.3,1.2-0.7c0-1.1-3.1-0.1-3.1-2.1
			c0-0.9,0.8-1.5,2.1-1.5c0.6,0,1.4,0.2,1.8,0.4l-0.4,0.7c-0.4-0.3-0.9-0.4-1.4-0.4c-0.8,0-1.2,0.3-1.2,0.7c0,1.2,3.1,0.2,3.1,2.1
			c0,0.9-0.8,1.5-2.1,1.5C191.8,78.8,191,78.6,190.6,78.2z"/>
		<path class="st0" d="M202.8,76.6h-4c0.1,0.9,0.8,1.4,1.8,1.4c0.6,0,1.1-0.2,1.4-0.6l0.5,0.6c-0.4,0.5-1.1,0.8-1.9,0.8
			c-1.6,0-2.6-1-2.6-2.5c0-1.5,1-2.5,2.5-2.5c1.4,0,2.4,1,2.4,2.5C202.8,76.4,202.8,76.5,202.8,76.6z M198.8,75.9h3.2
			c-0.1-0.8-0.7-1.4-1.6-1.4C199.6,74.5,198.9,75.1,198.8,75.9z"/>
		<path class="st0" d="M208.7,75.9v2.8h-0.9V76c0-1-0.5-1.4-1.3-1.4c-0.9,0-1.6,0.6-1.6,1.6v2.5h-0.9v-4.9h0.9v0.7
			c0.4-0.5,1-0.8,1.8-0.8C207.9,73.8,208.7,74.5,208.7,75.9z"/>
		<path class="st0" d="M212.5,75.5c0-1.9,1.5-3.3,3.4-3.3c1,0,1.9,0.3,2.5,1l-0.6,0.6c-0.5-0.5-1.1-0.8-1.8-0.8
			c-1.5,0-2.6,1.1-2.6,2.5c0,1.4,1.1,2.5,2.6,2.5c0.7,0,1.3-0.3,1.8-0.8l0.6,0.6c-0.6,0.7-1.5,1-2.5,1
			C214,78.8,212.5,77.4,212.5,75.5z"/>
		<path class="st0" d="M218.9,76.3c0-1.5,1.1-2.5,2.6-2.5c1.5,0,2.6,1,2.6,2.5c0,1.5-1.1,2.5-2.6,2.5
			C220,78.8,218.9,77.8,218.9,76.3z M223.2,76.3c0-1-0.7-1.7-1.7-1.7c-0.9,0-1.7,0.7-1.7,1.7c0,1,0.7,1.7,1.7,1.7
			C222.5,78,223.2,77.3,223.2,76.3z"/>
		<path class="st0" d="M233.5,75.9v2.8h-0.9V76c0-1-0.5-1.4-1.3-1.4c-0.9,0-1.5,0.6-1.5,1.6v2.5h-0.9V76c0-1-0.5-1.4-1.3-1.4
			c-0.9,0-1.5,0.6-1.5,1.6v2.5h-0.9v-4.9h0.9v0.7c0.4-0.5,1-0.8,1.7-0.8c0.8,0,1.4,0.3,1.7,0.9c0.4-0.6,1.1-0.9,1.9-0.9
			C232.6,73.8,233.5,74.5,233.5,75.9z"/>
		<path class="st0" d="M239.6,76.6h-4c0.1,0.9,0.8,1.4,1.8,1.4c0.6,0,1.1-0.2,1.4-0.6l0.5,0.6c-0.4,0.5-1.1,0.8-1.9,0.8
			c-1.6,0-2.6-1-2.6-2.5c0-1.5,1-2.5,2.5-2.5c1.4,0,2.4,1,2.4,2.5C239.6,76.4,239.6,76.5,239.6,76.6z M235.6,75.9h3.2
			c-0.1-0.8-0.7-1.4-1.6-1.4C236.3,74.5,235.7,75.1,235.6,75.9z"/>
		<path class="st0" d="M243.5,73.8v0.9c-0.1,0-0.1,0-0.2,0c-1,0-1.6,0.6-1.6,1.7v2.5h-0.9v-4.9h0.9v0.8
			C242,74.1,242.6,73.8,243.5,73.8z"/>
		<path class="st0" d="M244.1,76.3c0-1.5,1.1-2.5,2.6-2.5c0.9,0,1.6,0.4,2,1l-0.7,0.4c-0.3-0.5-0.8-0.7-1.3-0.7
			c-1,0-1.7,0.7-1.7,1.7c0,1.1,0.7,1.7,1.7,1.7c0.5,0,1-0.2,1.3-0.7l0.7,0.4c-0.4,0.7-1.1,1.1-2,1.1
			C245.1,78.8,244.1,77.8,244.1,76.3z"/>
		<path class="st0" d="M249.6,72.3c0-0.3,0.3-0.6,0.6-0.6s0.6,0.3,0.6,0.6c0,0.3-0.3,0.6-0.6,0.6C249.9,72.9,249.6,72.6,249.6,72.3z
			 M249.8,73.8h0.9v4.9h-0.9V73.8z"/>
		<path class="st0" d="M251.9,76.3c0-1.5,1.1-2.5,2.6-2.5c1.5,0,2.6,1,2.6,2.5c0,1.5-1.1,2.5-2.6,2.5
			C253,78.8,251.9,77.8,251.9,76.3z M256.2,76.3c0-1-0.7-1.7-1.7-1.7c-0.9,0-1.7,0.7-1.7,1.7c0,1,0.7,1.7,1.7,1.7
			C255.4,78,256.2,77.3,256.2,76.3z"/>
		<path class="st0" d="M265.6,77.9v0.8h-4.7v-6.5h4.6v0.8h-3.7v2h3.3v0.8h-3.3v2.1H265.6z"/>
		<path class="st0" d="M270,78.7l-1.4-1.9l-1.4,1.9h-1l1.9-2.5l-1.8-2.4h1l1.4,1.8l1.3-1.8h1l-1.9,2.4l2,2.5H270z"/>
		<path class="st0" d="M274.8,78.5c-0.3,0.2-0.7,0.3-1.1,0.3c-1,0-1.6-0.5-1.6-1.5v-2.7h-0.8v-0.7h0.8v-1.1h0.9v1.1h1.4v0.7H273v2.7
			c0,0.5,0.3,0.8,0.8,0.8c0.3,0,0.5-0.1,0.7-0.2L274.8,78.5z"/>
		<path class="st0" d="M280.1,76.6h-4c0.1,0.9,0.8,1.4,1.8,1.4c0.6,0,1.1-0.2,1.4-0.6l0.5,0.6c-0.4,0.5-1.1,0.8-1.9,0.8
			c-1.6,0-2.6-1-2.6-2.5c0-1.5,1-2.5,2.5-2.5c1.4,0,2.4,1,2.4,2.5C280.1,76.4,280.1,76.5,280.1,76.6z M276.1,75.9h3.2
			c-0.1-0.8-0.7-1.4-1.6-1.4C276.9,74.5,276.2,75.1,276.1,75.9z"/>
		<path class="st0" d="M284,73.8v0.9c-0.1,0-0.1,0-0.2,0c-1,0-1.6,0.6-1.6,1.7v2.5h-0.9v-4.9h0.9v0.8
			C282.5,74.1,283.2,73.8,284,73.8z"/>
		<path class="st0" d="M285,72.3c0-0.3,0.3-0.6,0.6-0.6s0.6,0.3,0.6,0.6c0,0.3-0.3,0.6-0.6,0.6C285.2,72.9,285,72.6,285,72.3z
			 M285.1,73.8h0.9v4.9h-0.9V73.8z"/>
		<path class="st0" d="M287.2,76.3c0-1.5,1.1-2.5,2.6-2.5c1.5,0,2.6,1,2.6,2.5c0,1.5-1.1,2.5-2.6,2.5
			C288.3,78.8,287.2,77.8,287.2,76.3z M291.5,76.3c0-1-0.7-1.7-1.7-1.7c-0.9,0-1.7,0.7-1.7,1.7c0,1,0.7,1.7,1.7,1.7
			C290.8,78,291.5,77.3,291.5,76.3z"/>
		<path class="st0" d="M296.2,73.8v0.9c-0.1,0-0.1,0-0.2,0c-1,0-1.6,0.6-1.6,1.7v2.5h-0.9v-4.9h0.9v0.8
			C294.8,74.1,295.4,73.8,296.2,73.8z"/>
		<path class="st0" d="M298.1,78.2c0,0.2,0,0.3-0.2,0.7l-0.4,1.3H297l0.3-1.4c-0.2-0.1-0.4-0.3-0.4-0.6c0-0.4,0.3-0.6,0.6-0.6
			C297.9,77.5,298.1,77.8,298.1,78.2z"/>
		<path class="st0" d="M301.4,78l0.3-0.7c0.5,0.4,1.3,0.8,2.1,0.8c1.1,0,1.6-0.4,1.6-1c0-1.6-3.9-0.6-3.9-3c0-1,0.8-1.9,2.5-1.9
			c0.8,0,1.6,0.2,2.1,0.6l-0.3,0.7c-0.6-0.4-1.2-0.5-1.8-0.5c-1.1,0-1.6,0.5-1.6,1c0,1.6,3.9,0.6,3.9,3c0,1-0.8,1.8-2.5,1.8
			C302.9,78.8,302,78.5,301.4,78z"/>
		<path class="st0" d="M307.4,78.2c0-0.4,0.3-0.6,0.6-0.6c0.3,0,0.6,0.3,0.6,0.6c0,0.4-0.3,0.6-0.6,0.6
			C307.7,78.8,307.4,78.5,307.4,78.2z"/>
		<path class="st0" d="M309.4,75.5c0-1.9,1.5-3.3,3.4-3.3c1,0,1.9,0.3,2.5,1l-0.6,0.6c-0.5-0.5-1.1-0.8-1.8-0.8
			c-1.5,0-2.6,1.1-2.6,2.5c0,1.4,1.1,2.5,2.6,2.5c0.7,0,1.3-0.3,1.8-0.8l0.6,0.6c-0.6,0.7-1.5,1-2.5,1
			C310.8,78.8,309.4,77.4,309.4,75.5z"/>
		<path class="st0" d="M316.2,78.2c0-0.4,0.3-0.6,0.6-0.6c0.3,0,0.6,0.3,0.6,0.6c0,0.4-0.3,0.6-0.6,0.6
			C316.5,78.8,316.2,78.5,316.2,78.2z"/>
	</g>
	<g>
		<g>
			<path class="st0" d="M35.4,37.1c0.1-0.6,0.2-1.3,0.4-1.9c-0.9-0.1-1.3-0.4-2-0.9c-0.8-0.6-1.8-1.3-3.6-1.3
				c-1.9,0-2.8,0.7-3.6,1.3c-0.7,0.5-1.2,0.9-2.3,0.9c-1.1,0-1.6-0.4-2.3-0.9c-0.8-0.6-1.8-1.3-3.6-1.3s-2.8,0.7-3.6,1.3
				c-0.7,0.5-1.2,0.9-2.3,0.9c-1.1,0-1.6-0.4-2.3-0.9c-0.6-0.4-1.3-0.9-2.3-1.2c0.1,0.9,0.3,1.7,0.4,2.6c0.2,0.1,0.4,0.2,0.5,0.4
				c0.8,0.6,1.8,1.3,3.6,1.3c1.9,0,2.8-0.7,3.6-1.3c0.7-0.5,1.2-0.9,2.3-0.9c1.1,0,1.6,0.4,2.3,0.9c0.8,0.6,1.8,1.3,3.6,1.3
				c1.9,0,2.8-0.7,3.6-1.3c0.7-0.5,1.2-0.9,2.3-0.9c1.1,0,1.6,0.4,2.3,0.9c0.7,0.5,1.5,1.1,2.8,1.3C35.4,37.3,35.4,37.2,35.4,37.1z"
				/>
			<path class="st0" d="M35,42.9c-0.4-0.2-0.8-0.4-1.2-0.7c-0.8-0.6-1.8-1.3-3.6-1.3c-1.9,0-2.8,0.7-3.6,1.3
				c-0.7,0.5-1.2,0.9-2.3,0.9c-1.1,0-1.6-0.4-2.3-0.9c-0.8-0.6-1.8-1.3-3.6-1.3s-2.8,0.7-3.6,1.3C14,42.7,13.5,43,12.4,43
				c-1.1,0-1.6-0.4-2.3-0.9c-0.6-0.4-1.3-0.9-2.3-1.2c0.1,0.9,0.3,1.7,0.4,2.6c0.2,0.1,0.4,0.2,0.5,0.4c0.8,0.6,1.8,1.3,3.6,1.3
				c1.9,0,2.8-0.7,3.6-1.3c0.7-0.5,1.2-0.9,2.3-0.9c1.1,0,1.6,0.4,2.3,0.9c0.8,0.6,1.8,1.3,3.6,1.3c1.9,0,2.8-0.7,3.6-1.3
				c0.7-0.5,1.2-0.9,2.3-0.9c1.1,0,1.6,0.4,2.3,0.9c0.6,0.5,1.4,1,2.5,1.2C35.1,44.4,35.1,43.6,35,42.9z"/>
			<path class="st0" d="M35.9,52.7c-0.2-0.8-0.3-1.1-0.4-2c0-0.1-0.6-0.2-0.6-0.2c-0.3-0.2-0.6-0.4-1-0.6c-0.8-0.6-1.8-1.3-3.6-1.3
				c-1.9,0-2.8,0.7-3.6,1.3c-0.7,0.5-1.2,0.9-2.3,0.9c-1.1,0-1.6-0.4-2.3-0.9c-0.8-0.6-1.8-1.3-3.6-1.3s-2.8,0.7-3.6,1.3
				c-0.7,0.5-1.2,0.9-2.3,0.9c-1.1,0-1.6-0.4-2.3-0.9c-0.6-0.4-1.3-0.9-2.3-1.2c0.1,0.9,0.3,1.7,0.4,2.6c0.2,0.1,0.4,0.2,0.5,0.4
				c0.8,0.6,1.8,1.3,3.6,1.3c1.9,0,2.8-0.7,3.6-1.3c0.7-0.5,1.2-0.9,2.3-0.9c1.1,0,1.6,0.4,2.3,0.9c0.8,0.6,1.8,1.3,3.6,1.3
				c1.9,0,2.8-0.7,3.6-1.3c0.7-0.5,1.2-0.9,2.3-0.9c1.1,0,1.6,0.4,2.3,0.9c0.7,0.5,1.8,1.2,3.3,1.3C35.9,53,35.9,52.8,35.9,52.7z"/>
		</g>
		<path class="st0" d="M111.1,66.1c14.2-8.7,18.5-18.7,13.3-30.7c-4.1-9.3-10.1-14.1-20.5-20.1c-1.7-1-3.1-0.9-3.6-0.6
			c-0.2,0.1-0.4,0.3-0.4,0.5c0,0.3,0.3,0.9,1.3,1.4c1.5,0.8,4.2,2.9,6.1,4.5c4.4,3.6,4.4,4.1,4.4,4.5c0,0.4-0.2,0.7-0.5,0.8
			c-0.6,0.3-1.1,0-2.5-0.9c-0.9-0.6-2.1-1.4-3.4-2.3c-3.3-2.2-7.9-5.3-10.1-6.2c-1.8-0.7-3.3-0.3-3.7,0.6c-0.4,0.8,0.3,1.9,1.8,2.8
			c2.4,1.3,6.1,3.7,9.3,5.9c1.7,1.2,3,2.2,4,2.9c1.2,1,2.1,1.8,1.7,2.7c-0.1,0.3-0.3,0.4-0.6,0.5c-0.8,0.2-1.9-0.3-8.1-3.9
			c-3.2-1.8-6.8-3.9-9.4-5.1c-1.9-0.8-3.2-0.8-3.7,0.1c-0.5,1,0.1,2.7,1.6,3.5c1.7,0.9,5.8,3.2,9.6,5.5c2.1,1.3,3.7,2.3,4.9,3.2
			c1.9,1.3,2.5,2,2.4,2.8c0,0.5-0.4,0.8-0.8,1c-1.5,0.4-4.1-1.1-8.6-3.7c-2.2-1.3-4.5-2.7-6.3-3.5c-1.4-0.6-2.4-0.5-2.8,0.3
			c-0.5,0.9,0,2.5,1.5,3.3c0.8,0.5,1.7,1,2.7,1.5c3.2,1.8,7.7,4.3,14.2,8.8c3.4,2.3,5.2,5,5.4,8c0.2,3.4-1.8,6.4-3.6,8
			c-3.3,2.9-3.6,4.4-3.3,4.9C104,68.2,108,68,111.1,66.1z"/>
		<path class="st0" d="M101.9,68.4c-1.2-1.6,0-4.1,3.5-7.3l0,0c1.5-1.3,3.2-3.9,3-6.6c-0.2-2.4-1.7-4.7-4.6-6.7
			c-6.5-4.5-10.9-6.9-14.1-8.7c-1-0.6-1.9-1.1-2.8-1.6c-1.9-1.1-3.2-3.6-2.1-5.7c0.7-1.3,2.4-2.3,5.2-1.1c1.9,0.8,4.2,2.2,6.5,3.6
			c1.6,0.9,3.1,1.8,4.3,2.5c-1-0.7-2.5-1.7-4.6-2.9c-3.6-2.2-7.4-4.3-9-5.1c-2.5-1.3-3.3-4.1-2.4-5.9c0.7-1.5,2.7-2.5,6.1-1
			c2.7,1.2,6.3,3.3,9.5,5.1c0.2,0.1,0.4,0.2,0.6,0.3c-2.8-1.9-6.1-4-8.5-5.3c-2.9-1.6-3.2-3.8-2.6-5.1c0.4-0.9,1.3-1.6,2.4-1.8
			c1.1-0.3,2.4-0.2,3.7,0.4c0.8,0.3,1.8,0.9,2.9,1.5c-0.5-0.7-0.6-1.3-0.6-1.7c0-0.8,0.3-1.4,0.9-1.9c-6.8-5.5-15.4-8.8-24.8-8.8
			c-18.7,0-34.4,13.1-38.4,30.6c0,0,0,0,0,0c1.1,0,1.6-0.4,2.3-0.9c0.8-0.6,1.8-1.3,3.6-1.3c1.9,0,2.8,0.7,3.6,1.3
			c0.7,0.5,1.2,0.9,2.3,0.9c1.1,0,1.6-0.4,2.3-0.9c0.8-0.6,1.8-1.3,3.6-1.3c1.9,0,2.8,0.7,3.6,1.3c0.7,0.5,1.2,0.9,2.3,0.9
			c0.6,0,1-0.1,1.3-0.3c1.9-5.4,6.5-10.7,14.8-15.8c5-3.1,14.5-2.9,5.6,5.1c-2.4,2.1-6.8,8.7,1.7,14.7c8.6,5.9,13.5,8.3,16.9,10.3
			c3.4,2,2.5,7.3-2.2,5.2c-4.7-2.1-12.2-7.7-14.2-7.2c-2.1,0.6,12.6,8.8,16.3,10.7c3.7,1.9,3,7.9-2.8,5.2
			c-5.9-2.7-16.5-9.7-16.9-8.8c-0.4,0.8,9.8,7.7,14.5,10.3c4.7,2.6,1.7,6.8-2.7,5c-4.2-1.7-14.8-9.7-15.3-9.4
			c-0.5,0.3,7.3,6.7,10,8.2c3.7,2.1,1,5.6-3.6,2.9c-13.3-7.6-17.4-13-20.4-19.3c-0.7,0.5-1.6,0.9-3,0.9c-1.9,0-2.8-0.7-3.6-1.3
			c-0.7-0.5-1.2-0.9-2.3-0.9c-1.1,0-1.6,0.4-2.3,0.9c-0.8,0.6-1.8,1.3-3.6,1.3c-1.9,0-2.8-0.7-3.6-1.3c-0.7-0.5-1.2-0.9-2.3-0.9
			c-1.1,0-1.6,0.4-2.3,0.9c-0.8,0.6-1.8,1.3-3.6,1.3C40,70.5,55.6,83.4,74.3,83.4c12,0,22.8-5.4,30-13.9
			C103.2,69.4,102.3,69,101.9,68.4z"/>
		<path class="st0" d="M38.2,42.2c0.8-0.6,1.8-1.3,3.6-1.3c1.9,0,2.8,0.7,3.6,1.3c0.7,0.5,1.2,0.9,2.3,0.9c1.1,0,1.6-0.4,2.3-0.9
			c0.8-0.6,1.8-1.3,3.6-1.3c1.9,0,2.8,0.7,3.6,1.3c0.7,0.5,1.2,0.9,2.3,0.9c0.1,0,0.2,0,0.3,0c-0.2-1.9-0.1-3.7,0.3-5.6
			c-0.2,0-0.4,0-0.7,0c-1.9,0-2.8-0.7-3.6-1.3c-0.7-0.5-1.2-0.9-2.3-0.9c-1.1,0-1.6,0.4-2.3,0.9c-0.8,0.6-1.8,1.3-3.6,1.3
			c-1.9,0-2.8-0.7-3.6-1.3c-0.7-0.5-1.2-0.9-2.3-0.9c-1.1,0-1.6,0.4-2.3,0.9c-0.8,0.6-1.8,1.3-3.6,1.3c-0.2,0-0.3,0-0.5,0
			c-0.3,1.8-0.5,3.6-0.5,5.4c0.3,0.1,0.6,0.1,1,0.1C37,43,37.5,42.7,38.2,42.2z"/>
		<path class="st0" d="M41.8,48.6c1.9,0,2.8,0.7,3.6,1.3c0.7,0.5,1.2,0.9,2.3,0.9c1.1,0,1.6-0.4,2.3-0.9c0.8-0.6,1.8-1.3,3.6-1.3
			c1.9,0,2.8,0.7,3.6,1.3c0.7,0.5,1.2,0.9,2.3,0.9c1,0,1.5-0.3,2.1-0.7c-0.6-1.6-1.1-3.2-1.5-4.9c-0.2,0-0.4,0-0.6,0
			c-1.9,0-2.8-0.7-3.6-1.3c-0.7-0.5-1.2-0.9-2.3-0.9c-1.1,0-1.6,0.4-2.3,0.9c-0.8,0.6-1.8,1.3-3.6,1.3c-1.9,0-2.8-0.7-3.6-1.3
			c-0.7-0.5-1.2-0.9-2.3-0.9c-1.1,0-1.6,0.4-2.3,0.9c-0.8,0.6-1.8,1.3-3.6,1.3c-0.4,0-0.7,0-1-0.1c0.1,1.9,0.2,3.8,0.6,5.6
			c0.1,0,0.3,0,0.4,0c1.1,0,1.6-0.4,2.3-0.9C39,49.3,40,48.6,41.8,48.6z"/>
	</g>
</g>
</svg>
