<?xml version="1.0" encoding="utf-8"?>
<!-- Generator: Adobe Illustrator 22.1.0, SVG Export Plug-In . SVG Version: 6.00 Build 0)  -->
<svg version="1.1" id="Layer_1" xmlns="http://www.w3.org/2000/svg" xmlns:xlink="http://www.w3.org/1999/xlink" x="0px" y="0px"
	 viewBox="0 0 196.1 144" style="enable-background:new 0 0 196.1 144;" xml:space="preserve">
<style type="text/css">
	.st0{fill:#FFFFFF;}
</style>
<g>
	<g>
		<g>
			<path class="st0" d="M3.4,141.1V112h8.9v21h12.5v8.1H3.4z"/>
			<path class="st0" d="M56.6,126.6c0,9.5-5.7,14.9-15,14.9c-9.3,0-15-5.3-15-14.9c0-9.7,5.7-15.1,15-15.1
				C50.9,111.5,56.6,117,56.6,126.6z M47.6,126.6c0-4.8-2.2-7.2-6-7.2c-3.7,0-6,2.3-6,7.2c0,4.6,2.3,6.9,6,6.9
				C45.3,133.6,47.6,131.3,47.6,126.6z"/>
			<path class="st0" d="M88,137.7c-5.4,2.8-9.6,3.8-14.4,3.8c-8.9,0-14.5-5.3-14.5-14.9c0-9.3,5.6-15.1,14.7-15.1
				c3.7,0,8.7,0.8,12.9,2.6l-2.1,6.6c-3.8-0.9-6.5-1.5-9.9-1.5c-4.1,0-6.5,2.8-6.5,7.3c0,4.6,2.2,7.2,5.9,7.2c2,0,3.8-0.1,6.2-0.9
				v-2.3h-6.5v-6.4H88V137.7z"/>
			<path class="st0" d="M92.1,141.1V112h8.9v29.1H92.1z"/>
			<path class="st0" d="M125.5,141.1l-10.9-14.7v14.7h-8.9V112h8.1l10.9,14.7V112h8.9v29.1H125.5z"/>
			<path class="st0" d="M163.7,138.2c-4.5,2.3-8.1,3.3-12.5,3.3c-9,0-14.6-5.3-14.6-14.9c0-9.7,5.7-15.1,15.1-15.1
				c3.7,0,7.4,0.9,11,2.6l-2.6,6.7c-3.7-1-5.8-1.4-8-1.4c-4.2,0-6.5,2.3-6.5,7.2c0,4.3,2.4,6.9,6.1,6.9c3,0,5.1-0.4,9.2-2
				L163.7,138.2z"/>
			<path class="st0" d="M194.8,126.6c0,9.5-5.7,14.9-15,14.9c-9.3,0-15-5.3-15-14.9c0-9.7,5.7-15.1,15-15.1
				C189.1,111.5,194.8,117,194.8,126.6z M185.8,126.6c0-4.8-2.2-7.2-6-7.2c-3.7,0-6,2.3-6,7.2c0,4.6,2.3,6.9,6,6.9
				C183.5,133.6,185.8,131.3,185.8,126.6z"/>
		</g>
	</g>
	<g>
		<g>
			<path class="st0" d="M61.2,42.2c0.1-0.8,0.3-1.5,0.5-2.3c-1-0.1-1.6-0.5-2.3-1c-0.9-0.7-2.1-1.6-4.3-1.6c-2.2,0-3.4,0.9-4.3,1.6
				c-0.8,0.6-1.4,1.1-2.8,1.1c-1.3,0-1.9-0.4-2.8-1.1c-0.9-0.7-2.1-1.6-4.3-1.6s-3.4,0.9-4.3,1.6c-0.8,0.6-1.4,1.1-2.8,1.1
				c-1.3,0-1.9-0.4-2.8-1.1c-0.7-0.5-1.5-1.1-2.8-1.4c0.1,1,0.3,2.1,0.5,3.1c0.2,0.1,0.4,0.3,0.7,0.5c0.9,0.7,2.1,1.6,4.3,1.6
				c2.2,0,3.4-0.9,4.3-1.6c0.8-0.6,1.4-1.1,2.8-1.1s1.9,0.4,2.8,1.1c0.9,0.7,2.1,1.6,4.3,1.6c2.2,0,3.4-0.9,4.3-1.6
				c0.8-0.6,1.4-1.1,2.8-1.1c1.3,0,1.9,0.4,2.8,1.1c0.8,0.6,1.8,1.3,3.4,1.5C61.1,42.4,61.1,42.3,61.2,42.2z"/>
			<path class="st0" d="M60.7,49c-0.5-0.2-0.9-0.5-1.4-0.8c-0.9-0.7-2.1-1.6-4.3-1.6c-2.2,0-3.4,0.9-4.3,1.6
				c-0.8,0.6-1.4,1.1-2.8,1.1c-1.3,0-1.9-0.4-2.8-1.1c-0.9-0.7-2.1-1.6-4.3-1.6s-3.4,0.9-4.3,1.6c-0.8,0.6-1.4,1.1-2.8,1.1
				c-1.3,0-1.9-0.4-2.8-1.1c-0.7-0.5-1.5-1.1-2.8-1.4c0.1,1,0.3,2.1,0.5,3.1c0.2,0.1,0.4,0.3,0.7,0.5c0.9,0.7,2.1,1.6,4.3,1.6
				c2.2,0,3.4-0.9,4.3-1.6c0.8-0.6,1.4-1.1,2.8-1.1s1.9,0.4,2.8,1.1c0.9,0.7,2.1,1.6,4.3,1.6c2.2,0,3.4-0.9,4.3-1.6
				c0.8-0.6,1.4-1.1,2.8-1.1c1.3,0,1.9,0.4,2.8,1.1c0.7,0.6,1.6,1.2,3,1.5C60.8,50.8,60.8,49.9,60.7,49z"/>
			<path class="st0" d="M61.7,60.8c-0.2-0.9-0.3-1.3-0.5-2.3c0-0.1-0.7-0.2-0.7-0.3c-0.4-0.2-0.8-0.4-1.2-0.8
				c-0.9-0.7-2.1-1.6-4.3-1.6c-2.2,0-3.4,0.9-4.3,1.6c-0.8,0.6-1.4,1.1-2.8,1.1c-1.3,0-1.9-0.4-2.8-1.1c-0.9-0.7-2.1-1.6-4.3-1.6
				s-3.4,0.9-4.3,1.6c-0.8,0.6-1.4,1.1-2.8,1.1c-1.3,0-1.9-0.4-2.8-1.1c-0.7-0.5-1.5-1.1-2.8-1.4c0.1,1,0.3,2.1,0.5,3.1
				c0.2,0.1,0.4,0.3,0.7,0.5c0.9,0.7,2.1,1.6,4.3,1.6c2.2,0,3.4-0.9,4.3-1.6c0.8-0.6,1.4-1.1,2.8-1.1s1.9,0.4,2.8,1.1
				c0.9,0.7,2.1,1.6,4.3,1.6c2.2,0,3.4-0.9,4.3-1.6c0.8-0.6,1.4-1.1,2.8-1.1c1.3,0,1.9,0.4,2.8,1.1c0.9,0.6,2.2,1.4,4,1.6
				C61.7,61.1,61.7,60.9,61.7,60.8z"/>
		</g>
		<path class="st0" d="M151.6,76.8c16.9-10.4,22.1-22.4,15.9-36.6c-4.9-11.1-12.1-16.8-24.5-24c-2.1-1.2-3.6-1.1-4.4-0.7
			c-0.2,0.1-0.4,0.3-0.4,0.6c0,0.4,0.4,1.1,1.5,1.7c1.8,1,5.1,3.5,7.3,5.4c5.2,4.3,5.2,4.9,5.2,5.4c0,0.4-0.2,0.8-0.6,1
			c-0.7,0.4-1.3,0-3-1c-1.1-0.7-2.5-1.6-4.1-2.7c-4-2.7-9.4-6.4-12.1-7.5c-2.2-0.9-4-0.3-4.5,0.7c-0.5,1,0.4,2.3,2.2,3.3
			c2.8,1.6,7.3,4.4,11.1,7c2,1.4,3.6,2.6,4.7,3.5c1.5,1.2,2.5,2.2,2,3.2c-0.1,0.3-0.4,0.5-0.7,0.6c-1,0.3-2.2-0.3-9.7-4.6
			c-3.8-2.2-8.1-4.6-11.2-6.1c-2.2-1-3.9-1-4.4,0.1c-0.6,1.2,0.1,3.2,2,4.1c2,1.1,7,3.8,11.5,6.5c2.5,1.5,4.5,2.8,5.9,3.8
			c2.2,1.6,3,2.4,2.9,3.3c-0.1,0.5-0.4,1-1,1.1c-1.8,0.5-4.9-1.3-10.2-4.5c-2.6-1.6-5.3-3.2-7.5-4.2c-1.7-0.7-2.9-0.6-3.4,0.3
			c-0.6,1.1,0,3,1.7,4c1,0.6,2,1.2,3.2,1.8c3.9,2.2,9.2,5.1,17,10.6c4.1,2.8,6.2,6,6.5,9.6c0.3,4-2.1,7.7-4.3,9.6
			c-3.9,3.5-4.3,5.3-3.9,5.8C143.1,79.3,148,79,151.6,76.8z"/>
		<path class="st0" d="M140.6,79.5c-1.5-2,0-4.9,4.2-8.7l0,0c1.8-1.6,3.8-4.6,3.6-7.9c-0.2-2.9-2-5.6-5.5-8
			c-7.8-5.4-13-8.3-16.8-10.4c-1.2-0.7-2.3-1.3-3.3-1.9c-2.2-1.3-3.9-4.3-2.6-6.8c0.8-1.6,2.9-2.8,6.2-1.3c2.3,1,5.1,2.7,7.7,4.3
			c1.9,1.1,3.6,2.2,5.2,3c-1.2-0.8-3-2-5.5-3.5c-4.3-2.6-8.9-5.1-10.8-6.1c-3-1.6-3.9-4.9-2.9-7c0.9-1.8,3.2-3,7.2-1.1
			c3.2,1.5,7.5,4,11.4,6.2c0.2,0.1,0.4,0.3,0.7,0.4c-3.3-2.3-7.3-4.8-10.1-6.4c-3.5-1.9-3.8-4.5-3.1-6.1c0.5-1.1,1.5-1.9,2.8-2.2
			c1.3-0.3,2.8-0.2,4.4,0.4c1,0.4,2.2,1,3.5,1.8c-0.6-0.8-0.7-1.5-0.7-2c0-0.9,0.4-1.7,1.1-2.3c-8.1-6.5-18.4-10.5-29.6-10.5
			C85.2,3.4,66.5,19,61.7,39.9c0,0,0,0,0,0c1.3,0,1.9-0.4,2.8-1.1c0.9-0.7,2.1-1.6,4.3-1.6c2.2,0,3.4,0.9,4.3,1.6
			c0.8,0.6,1.4,1.1,2.8,1.1c1.3,0,1.9-0.4,2.8-1.1c0.9-0.7,2.1-1.6,4.3-1.6c2.2,0,3.4,0.9,4.3,1.6c0.8,0.6,1.4,1.1,2.8,1.1
			c0.7,0,1.2-0.1,1.6-0.3c2.3-6.4,7.7-12.8,17.7-18.9c6-3.7,17.4-3.5,6.7,6.1c-2.8,2.5-8.2,10.4,2.1,17.5
			c10.2,7.1,16.1,9.9,20.2,12.4c4.1,2.4,3,8.7-2.6,6.2c-5.6-2.5-14.6-9.2-17-8.6c-2.5,0.7,15.1,10.5,19.4,12.8
			c4.4,2.3,3.6,9.4-3.4,6.2c-7-3.2-19.8-11.5-20.2-10.6c-0.5,1,11.7,9.2,17.4,12.3c5.6,3.1,2.1,8.1-3.2,5.9
			c-5-2-17.7-11.6-18.3-11.3c-0.6,0.3,8.7,8,12,9.8c4.5,2.5,1.2,6.7-4.3,3.5c-15.8-9.1-20.8-15.5-24.3-23.1c-0.8,0.5-1.9,1-3.6,1
			c-2.2,0-3.4-0.9-4.3-1.6C85,59,84.4,58.5,83,58.5c-1.3,0-1.9,0.4-2.8,1.1c-0.9,0.7-2.1,1.6-4.3,1.6s-3.4-0.9-4.3-1.6
			c-0.8-0.6-1.4-1.1-2.8-1.1c-1.3,0-1.9,0.4-2.8,1.1c-0.9,0.7-2.1,1.6-4.3,1.6c4.9,20.8,23.5,36.3,45.8,36.3
			c14.4,0,27.2-6.4,35.9-16.6C142.1,80.8,141.1,80.3,140.6,79.5z"/>
		<path class="st0" d="M64.5,48.2c0.9-0.7,2.1-1.6,4.3-1.6c2.2,0,3.4,0.9,4.3,1.6c0.8,0.6,1.4,1.1,2.8,1.1c1.3,0,1.9-0.4,2.8-1.1
			c0.9-0.7,2.1-1.6,4.3-1.6c2.2,0,3.4,0.9,4.3,1.6c0.8,0.6,1.4,1.1,2.8,1.1c0.1,0,0.3,0,0.4,0c-0.2-2.2-0.1-4.4,0.4-6.7
			c-0.2,0-0.5,0-0.8,0c-2.2,0-3.4-0.9-4.3-1.6c-0.8-0.6-1.4-1.1-2.8-1.1c-1.3,0-1.9,0.4-2.8,1.1c-0.9,0.7-2.1,1.6-4.3,1.6
			c-2.2,0-3.4-0.9-4.3-1.6c-0.8-0.6-1.4-1.1-2.8-1.1c-1.3,0-1.9,0.4-2.8,1.1c-0.9,0.7-2.1,1.6-4.3,1.6c-0.2,0-0.4,0-0.6,0
			c-0.4,2.1-0.6,4.3-0.6,6.5c0.3,0.1,0.7,0.2,1.2,0.2C63.1,49.2,63.7,48.8,64.5,48.2z"/>
		<path class="st0" d="M68.8,55.9c2.2,0,3.4,0.9,4.3,1.6c0.8,0.6,1.4,1.1,2.8,1.1c1.3,0,1.9-0.4,2.8-1.1c0.9-0.7,2.1-1.6,4.3-1.6
			c2.2,0,3.4,0.9,4.3,1.6c0.8,0.6,1.4,1.1,2.8,1.1c1.2,0,1.8-0.4,2.5-0.9c-0.8-1.9-1.4-3.9-1.7-5.8c-0.2,0-0.5,0-0.8,0
			c-2.2,0-3.4-0.9-4.3-1.6c-0.8-0.6-1.4-1.1-2.8-1.1c-1.3,0-1.9,0.4-2.8,1.1c-0.9,0.7-2.1,1.6-4.3,1.6c-2.2,0-3.4-0.9-4.3-1.6
			c-0.8-0.6-1.4-1.1-2.8-1.1c-1.3,0-1.9,0.4-2.8,1.1c-0.9,0.7-2.1,1.6-4.3,1.6c-0.4,0-0.8,0-1.2-0.1c0.1,2.3,0.3,4.5,0.7,6.7
			c0.2,0,0.3,0,0.5,0c1.3,0,1.9-0.4,2.8-1.1C65.4,56.8,66.6,55.9,68.8,55.9z"/>
	</g>
</g>
</svg>
