<?xml version="1.0" encoding="utf-8"?>
<!-- Generator: Adobe Illustrator 22.1.0, SVG Export Plug-In . SVG Version: 6.00 Build 0)  -->
<svg version="1.1" id="Layer_1" xmlns="http://www.w3.org/2000/svg" xmlns:xlink="http://www.w3.org/1999/xlink" x="0px" y="0px"
	 viewBox="0 0 1943 128.1" style="enable-background:new 0 0 1943 128.1;" xml:space="preserve">
<style type="text/css">
	.st0{fill:#7D7EB3;}
</style>
<g>
	<g>
		<g>
			<g>
				<path class="st0" d="M33.8,35.3c9.1,0,13.9-3.6,17.8-6.5c3.4-2.5,5.8-4.3,11.3-4.3c5.5,0,7.9,1.8,11.3,4.3
					c3.9,2.9,8.7,6.5,17.8,6.5c9.1,0,13.9-3.6,17.8-6.5c3.4-2.5,5.8-4.3,11.3-4.3c5.5,0,7.9,1.8,11.3,4.3c3.9,2.9,8.7,6.5,17.8,6.5
					c9.1,0,13.9-3.6,17.8-6.5c3.4-2.5,5.8-4.3,11.3-4.3c5.5,0,7.9,1.8,11.3,4.3c3.9,2.9,8.7,6.5,17.8,6.5c9.1,0,13.9-3.6,17.8-6.5
					c3.4-2.5,5.8-4.3,11.3-4.3c5.5,0,7.9,1.8,11.3,4.3c3.9,2.9,8.7,6.5,17.8,6.5c9.1,0,13.9-3.6,17.8-6.5c0.9-0.7,1.8-1.3,2.7-1.9
					c0.9-4.1,1.6-8.3,2.2-12.6c-5.1,1.2-8.5,3.7-11.3,5.8c-3.4,2.5-5.8,4.3-11.3,4.3c-5.5,0-7.9-1.8-11.3-4.3
					c-3.9-2.9-8.7-6.5-17.8-6.5c-9.1,0-13.9,3.6-17.8,6.5c-3.4,2.5-5.8,4.3-11.3,4.3c-5.5,0-7.9-1.8-11.3-4.3
					c-3.9-2.9-8.7-6.5-17.8-6.5c-9.1,0-13.9,3.6-17.8,6.5c-3.4,2.5-5.8,4.3-11.3,4.3c-5.5,0-7.9-1.8-11.3-4.3
					c-3.9-2.9-8.7-6.5-17.8-6.5s-13.9,3.6-17.8,6.5c-3.4,2.5-5.8,4.3-11.3,4.3c-5.5,0-7.9-1.8-11.3-4.3c-3.9-2.9-8.7-6.5-17.8-6.5
					c-9.1,0-13.9,3.6-17.8,6.5c-3.4,2.5-5.8,4.3-11.3,4.3c-5.5,0-7.9-1.8-11.3-4.3c-2.8-2.1-6.2-4.6-11.3-5.8
					c0.5,4.2,1.2,8.4,2.2,12.6c0.9,0.6,1.7,1.2,2.7,1.9C19.9,31.7,24.7,35.3,33.8,35.3z"/>
			</g>
			<g>
				<path class="st0" d="M33.8,73.4c9.1,0,13.9-3.6,17.8-6.5c3.4-2.5,5.8-4.3,11.3-4.3c5.5,0,7.9,1.8,11.3,4.3
					c3.9,2.9,8.7,6.5,17.8,6.5c9.1,0,13.9-3.6,17.8-6.5c3.4-2.5,5.8-4.3,11.3-4.3c5.5,0,7.9,1.8,11.3,4.3c3.9,2.9,8.7,6.5,17.8,6.5
					c9.1,0,13.9-3.6,17.8-6.5c3.4-2.5,5.8-4.3,11.3-4.3c5.5,0,7.9,1.8,11.3,4.3c3.9,2.9,8.7,6.5,17.8,6.5c9.1,0,13.9-3.6,17.8-6.5
					c3.4-2.5,5.8-4.3,11.3-4.3c5.5,0,7.9,1.8,11.3,4.3c3.9,2.9,8.7,6.5,17.8,6.5c9.1,0,13.9-3.6,17.8-6.5c0.9-0.7,1.8-1.3,2.7-1.9
					c0.9-4.1,1.6-8.3,2.2-12.6c-5.1,1.2-8.5,3.7-11.3,5.8c-3.4,2.5-5.8,4.3-11.3,4.3c-5.5,0-7.9-1.8-11.3-4.3
					c-3.9-2.9-8.7-6.5-17.8-6.5c-9.1,0-13.9,3.6-17.8,6.5c-3.4,2.5-5.8,4.3-11.3,4.3c-5.5,0-7.9-1.8-11.3-4.3
					c-3.9-2.9-8.7-6.5-17.8-6.5c-9.1,0-13.9,3.6-17.8,6.5c-3.4,2.5-5.8,4.3-11.3,4.3c-5.5,0-7.9-1.8-11.3-4.3
					c-3.9-2.9-8.7-6.5-17.8-6.5s-13.9,3.6-17.8,6.5c-3.4,2.5-5.8,4.3-11.3,4.3c-5.5,0-7.9-1.8-11.3-4.3c-3.9-2.9-8.7-6.5-17.8-6.5
					c-9.1,0-13.9,3.6-17.8,6.5c-3.4,2.5-5.8,4.3-11.3,4.3c-5.5,0-7.9-1.8-11.3-4.3c-2.8-2.1-6.2-4.6-11.3-5.8
					c0.5,4.2,1.2,8.4,2.2,12.6c0.9,0.6,1.7,1.2,2.7,1.9C19.9,69.8,24.7,73.4,33.8,73.4z"/>
			</g>
			<g>
				<path class="st0" d="M33.8,111.5c9.1,0,13.9-3.6,17.8-6.5c3.4-2.5,5.8-4.3,11.3-4.3c5.5,0,7.9,1.8,11.3,4.3
					c3.9,2.9,8.7,6.5,17.8,6.5c9.1,0,13.9-3.6,17.8-6.5c3.4-2.5,5.8-4.3,11.3-4.3c5.5,0,7.9,1.8,11.3,4.3c3.9,2.9,8.7,6.5,17.8,6.5
					c9.1,0,13.9-3.6,17.8-6.5c3.4-2.5,5.8-4.3,11.3-4.3c5.5,0,7.9,1.8,11.3,4.3c3.9,2.9,8.7,6.5,17.8,6.5c9.1,0,13.9-3.6,17.8-6.5
					c3.4-2.5,5.8-4.3,11.3-4.3c5.5,0,7.9,1.8,11.3,4.3c3.9,2.9,8.7,6.5,17.8,6.5c9.1,0,13.9-3.6,17.8-6.5c0.9-0.7,1.8-1.3,2.7-1.9
					c0.9-4.1,1.6-8.3,2.2-12.6c-5.1,1.2-8.5,3.7-11.3,5.8c-3.4,2.5-5.8,4.3-11.3,4.3c-5.5,0-7.9-1.8-11.3-4.3
					c-3.9-2.9-8.7-6.5-17.8-6.5c-9.1,0-13.9,3.6-17.8,6.5c-3.4,2.5-5.8,4.3-11.3,4.3c-5.5,0-7.9-1.8-11.3-4.3
					c-3.9-2.9-8.7-6.5-17.8-6.5c-9.1,0-13.9,3.6-17.8,6.5c-3.4,2.5-5.8,4.3-11.3,4.3c-5.5,0-7.9-1.8-11.3-4.3
					c-3.9-2.9-8.7-6.5-17.8-6.5s-13.9,3.6-17.8,6.5c-3.4,2.5-5.8,4.3-11.3,4.3c-5.5,0-7.9-1.8-11.3-4.3c-3.9-2.9-8.7-6.5-17.8-6.5
					c-9.1,0-13.9,3.6-17.8,6.5c-3.4,2.5-5.8,4.3-11.3,4.3c-5.5,0-7.9-1.8-11.3-4.3c-2.8-2.1-6.2-4.6-11.3-5.8
					c0.5,4.2,1.2,8.4,2.2,12.6c0.9,0.6,1.7,1.2,2.7,1.9C19.9,107.9,24.7,111.5,33.8,111.5z"/>
			</g>
		</g>
		<g>
			<g>
				<path class="st0" d="M269.5,35.3c9.1,0,13.9-3.6,17.8-6.5c3.4-2.5,5.8-4.3,11.3-4.3s7.9,1.8,11.3,4.3c3.9,2.9,8.7,6.5,17.8,6.5
					c9.1,0,13.9-3.6,17.8-6.5c3.4-2.5,5.8-4.3,11.3-4.3c5.5,0,7.9,1.8,11.3,4.3c3.9,2.9,8.7,6.5,17.8,6.5c9.1,0,13.9-3.6,17.8-6.5
					c3.4-2.5,5.8-4.3,11.3-4.3s7.9,1.8,11.3,4.3c3.9,2.9,8.7,6.5,17.8,6.5s13.9-3.6,17.8-6.5c3.4-2.5,5.8-4.3,11.3-4.3
					c5.5,0,7.9,1.8,11.3,4.3c3.9,2.9,8.7,6.5,17.8,6.5c9.1,0,13.9-3.6,17.8-6.5c0.9-0.7,1.8-1.3,2.7-1.9c0.9-4.1,1.6-8.3,2.2-12.6
					c-5.1,1.2-8.5,3.7-11.3,5.8c-3.4,2.5-5.8,4.3-11.3,4.3c-5.5,0-7.9-1.8-11.3-4.3c-3.9-2.9-8.7-6.5-17.8-6.5
					c-9.1,0-13.9,3.6-17.8,6.5c-3.4,2.5-5.8,4.3-11.3,4.3s-7.9-1.8-11.3-4.3c-3.9-2.9-8.7-6.5-17.8-6.5c-9.1,0-13.9,3.6-17.8,6.5
					c-3.4,2.5-5.8,4.3-11.3,4.3c-5.5,0-7.9-1.8-11.3-4.3c-3.9-2.9-8.7-6.5-17.8-6.5c-9.1,0-13.9,3.6-17.8,6.5
					c-3.4,2.5-5.8,4.3-11.3,4.3c-5.5,0-7.9-1.8-11.3-4.3c-3.9-2.9-8.7-6.5-17.8-6.5c-9.1,0-13.9,3.6-17.8,6.5
					c-3.4,2.5-5.8,4.3-11.3,4.3c-5.5,0-7.9-1.8-11.3-4.3c-2.8-2.1-6.2-4.6-11.3-5.8c0.5,4.2,1.2,8.4,2.2,12.6
					c0.9,0.6,1.7,1.2,2.7,1.9C255.6,31.7,260.4,35.3,269.5,35.3z"/>
			</g>
			<g>
				<path class="st0" d="M269.5,73.4c9.1,0,13.9-3.6,17.8-6.5c3.4-2.5,5.8-4.3,11.3-4.3s7.9,1.8,11.3,4.3c3.9,2.9,8.7,6.5,17.8,6.5
					c9.1,0,13.9-3.6,17.8-6.5c3.4-2.5,5.8-4.3,11.3-4.3c5.5,0,7.9,1.8,11.3,4.3c3.9,2.9,8.7,6.5,17.8,6.5c9.1,0,13.9-3.6,17.8-6.5
					c3.4-2.5,5.8-4.3,11.3-4.3s7.9,1.8,11.3,4.3c3.9,2.9,8.7,6.5,17.8,6.5s13.9-3.6,17.8-6.5c3.4-2.5,5.8-4.3,11.3-4.3
					c5.5,0,7.9,1.8,11.3,4.3c3.9,2.9,8.7,6.5,17.8,6.5c9.1,0,13.9-3.6,17.8-6.5c0.9-0.7,1.8-1.3,2.7-1.9c0.9-4.1,1.6-8.3,2.2-12.6
					c-5.1,1.2-8.5,3.7-11.3,5.8c-3.4,2.5-5.8,4.3-11.3,4.3c-5.5,0-7.9-1.8-11.3-4.3c-3.9-2.9-8.7-6.5-17.8-6.5
					c-9.1,0-13.9,3.6-17.8,6.5c-3.4,2.5-5.8,4.3-11.3,4.3s-7.9-1.8-11.3-4.3c-3.9-2.9-8.7-6.5-17.8-6.5c-9.1,0-13.9,3.6-17.8,6.5
					c-3.4,2.5-5.8,4.3-11.3,4.3c-5.5,0-7.9-1.8-11.3-4.3c-3.9-2.9-8.7-6.5-17.8-6.5c-9.1,0-13.9,3.6-17.8,6.5
					c-3.4,2.5-5.8,4.3-11.3,4.3c-5.5,0-7.9-1.8-11.3-4.3c-3.9-2.9-8.7-6.5-17.8-6.5c-9.1,0-13.9,3.6-17.8,6.5
					c-3.4,2.5-5.8,4.3-11.3,4.3c-5.5,0-7.9-1.8-11.3-4.3c-2.8-2.1-6.2-4.6-11.3-5.8c0.5,4.2,1.2,8.4,2.2,12.6
					c0.9,0.6,1.7,1.2,2.7,1.9C255.6,69.8,260.4,73.4,269.5,73.4z"/>
			</g>
			<g>
				<path class="st0" d="M269.5,111.5c9.1,0,13.9-3.6,17.8-6.5c3.4-2.5,5.8-4.3,11.3-4.3s7.9,1.8,11.3,4.3c3.9,2.9,8.7,6.5,17.8,6.5
					c9.1,0,13.9-3.6,17.8-6.5c3.4-2.5,5.8-4.3,11.3-4.3c5.5,0,7.9,1.8,11.3,4.3c3.9,2.9,8.7,6.5,17.8,6.5c9.1,0,13.9-3.6,17.8-6.5
					c3.4-2.5,5.8-4.3,11.3-4.3s7.9,1.8,11.3,4.3c3.9,2.9,8.7,6.5,17.8,6.5s13.9-3.6,17.8-6.5c3.4-2.5,5.8-4.3,11.3-4.3
					c5.5,0,7.9,1.8,11.3,4.3c3.9,2.9,8.7,6.5,17.8,6.5c9.1,0,13.9-3.6,17.8-6.5c0.9-0.7,1.8-1.3,2.7-1.9c0.9-4.1,1.6-8.3,2.2-12.6
					c-5.1,1.2-8.5,3.7-11.3,5.8c-3.4,2.5-5.8,4.3-11.3,4.3c-5.5,0-7.9-1.8-11.3-4.3c-3.9-2.9-8.7-6.5-17.8-6.5
					c-9.1,0-13.9,3.6-17.8,6.5c-3.4,2.5-5.8,4.3-11.3,4.3s-7.9-1.8-11.3-4.3c-3.9-2.9-8.7-6.5-17.8-6.5c-9.1,0-13.9,3.6-17.8,6.5
					c-3.4,2.5-5.8,4.3-11.3,4.3c-5.5,0-7.9-1.8-11.3-4.3c-3.9-2.9-8.7-6.5-17.8-6.5c-9.1,0-13.9,3.6-17.8,6.5
					c-3.4,2.5-5.8,4.3-11.3,4.3c-5.5,0-7.9-1.8-11.3-4.3c-3.9-2.9-8.7-6.5-17.8-6.5c-9.1,0-13.9,3.6-17.8,6.5
					c-3.4,2.5-5.8,4.3-11.3,4.3c-5.5,0-7.9-1.8-11.3-4.3c-2.8-2.1-6.2-4.6-11.3-5.8c0.5,4.2,1.2,8.4,2.2,12.6
					c0.9,0.6,1.7,1.2,2.7,1.9C255.6,107.9,260.4,111.5,269.5,111.5z"/>
			</g>
		</g>
		<g>
			<g>
				<path class="st0" d="M501.4,35.3c9.1,0,13.9-3.6,17.8-6.5c3.4-2.5,5.8-4.3,11.3-4.3c5.5,0,7.9,1.8,11.3,4.3
					c3.9,2.9,8.7,6.5,17.8,6.5c9.1,0,13.9-3.6,17.8-6.5c3.4-2.5,5.8-4.3,11.3-4.3c5.5,0,7.9,1.8,11.3,4.3c3.9,2.9,8.7,6.5,17.8,6.5
					c9.1,0,13.9-3.6,17.8-6.5c3.4-2.5,5.8-4.3,11.3-4.3c5.5,0,7.9,1.8,11.3,4.3c3.9,2.9,8.7,6.5,17.8,6.5c9.1,0,13.9-3.6,17.8-6.5
					c3.4-2.5,5.8-4.3,11.3-4.3c5.5,0,7.9,1.8,11.3,4.3c3.9,2.9,8.7,6.5,17.8,6.5c9.1,0,13.9-3.6,17.8-6.5c0.9-0.7,1.8-1.3,2.7-1.9
					c0.9-4.1,1.6-8.3,2.2-12.6c-5.1,1.2-8.5,3.7-11.3,5.8c-3.4,2.5-5.8,4.3-11.3,4.3c-5.5,0-7.9-1.8-11.3-4.3
					c-3.9-2.9-8.7-6.5-17.8-6.5c-9.1,0-13.9,3.6-17.8,6.5c-3.4,2.5-5.8,4.3-11.3,4.3c-5.5,0-7.9-1.8-11.3-4.3
					c-3.9-2.9-8.7-6.5-17.8-6.5c-9.1,0-13.9,3.6-17.8,6.5c-3.4,2.5-5.8,4.3-11.3,4.3c-5.5,0-7.9-1.8-11.3-4.3
					c-3.9-2.9-8.7-6.5-17.8-6.5s-13.9,3.6-17.8,6.5c-3.4,2.5-5.8,4.3-11.3,4.3c-5.5,0-7.9-1.8-11.3-4.3c-3.9-2.9-8.7-6.5-17.8-6.5
					c-9.1,0-13.9,3.6-17.8,6.5c-3.4,2.5-5.8,4.3-11.3,4.3c-5.5,0-7.9-1.8-11.3-4.3c-2.8-2.1-6.2-4.6-11.3-5.8
					c0.5,4.2,1.2,8.4,2.2,12.6c0.9,0.6,1.7,1.2,2.7,1.9C487.5,31.7,492.3,35.3,501.4,35.3z"/>
			</g>
			<g>
				<path class="st0" d="M501.4,73.4c9.1,0,13.9-3.6,17.8-6.5c3.4-2.5,5.8-4.3,11.3-4.3c5.5,0,7.9,1.8,11.3,4.3
					c3.9,2.9,8.7,6.5,17.8,6.5c9.1,0,13.9-3.6,17.8-6.5c3.4-2.5,5.8-4.3,11.3-4.3c5.5,0,7.9,1.8,11.3,4.3c3.9,2.9,8.7,6.5,17.8,6.5
					c9.1,0,13.9-3.6,17.8-6.5c3.4-2.5,5.8-4.3,11.3-4.3c5.5,0,7.9,1.8,11.3,4.3c3.9,2.9,8.7,6.5,17.8,6.5c9.1,0,13.9-3.6,17.8-6.5
					c3.4-2.5,5.8-4.3,11.3-4.3c5.5,0,7.9,1.8,11.3,4.3c3.9,2.9,8.7,6.5,17.8,6.5c9.1,0,13.9-3.6,17.8-6.5c0.9-0.7,1.8-1.3,2.7-1.9
					c0.9-4.1,1.6-8.3,2.2-12.6c-5.1,1.2-8.5,3.7-11.3,5.8c-3.4,2.5-5.8,4.3-11.3,4.3c-5.5,0-7.9-1.8-11.3-4.3
					c-3.9-2.9-8.7-6.5-17.8-6.5c-9.1,0-13.9,3.6-17.8,6.5c-3.4,2.5-5.8,4.3-11.3,4.3c-5.5,0-7.9-1.8-11.3-4.3
					c-3.9-2.9-8.7-6.5-17.8-6.5c-9.1,0-13.9,3.6-17.8,6.5c-3.4,2.5-5.8,4.3-11.3,4.3c-5.5,0-7.9-1.8-11.3-4.3
					c-3.9-2.9-8.7-6.5-17.8-6.5s-13.9,3.6-17.8,6.5c-3.4,2.5-5.8,4.3-11.3,4.3c-5.5,0-7.9-1.8-11.3-4.3c-3.9-2.9-8.7-6.5-17.8-6.5
					c-9.1,0-13.9,3.6-17.8,6.5c-3.4,2.5-5.8,4.3-11.3,4.3c-5.5,0-7.9-1.8-11.3-4.3c-2.8-2.1-6.2-4.6-11.3-5.8
					c0.5,4.2,1.2,8.4,2.2,12.6c0.9,0.6,1.7,1.2,2.7,1.9C487.5,69.8,492.3,73.4,501.4,73.4z"/>
			</g>
			<g>
				<path class="st0" d="M501.4,111.5c9.1,0,13.9-3.6,17.8-6.5c3.4-2.5,5.8-4.3,11.3-4.3c5.5,0,7.9,1.8,11.3,4.3
					c3.9,2.9,8.7,6.5,17.8,6.5c9.1,0,13.9-3.6,17.8-6.5c3.4-2.5,5.8-4.3,11.3-4.3c5.5,0,7.9,1.8,11.3,4.3c3.9,2.9,8.7,6.5,17.8,6.5
					c9.1,0,13.9-3.6,17.8-6.5c3.4-2.5,5.8-4.3,11.3-4.3c5.5,0,7.9,1.8,11.3,4.3c3.9,2.9,8.7,6.5,17.8,6.5c9.1,0,13.9-3.6,17.8-6.5
					c3.4-2.5,5.8-4.3,11.3-4.3c5.5,0,7.9,1.8,11.3,4.3c3.9,2.9,8.7,6.5,17.8,6.5c9.1,0,13.9-3.6,17.8-6.5c0.9-0.7,1.8-1.3,2.7-1.9
					c0.9-4.1,1.6-8.3,2.2-12.6c-5.1,1.2-8.5,3.7-11.3,5.8c-3.4,2.5-5.8,4.3-11.3,4.3c-5.5,0-7.9-1.8-11.3-4.3
					c-3.9-2.9-8.7-6.5-17.8-6.5c-9.1,0-13.9,3.6-17.8,6.5c-3.4,2.5-5.8,4.3-11.3,4.3c-5.5,0-7.9-1.8-11.3-4.3
					c-3.9-2.9-8.7-6.5-17.8-6.5c-9.1,0-13.9,3.6-17.8,6.5c-3.4,2.5-5.8,4.3-11.3,4.3c-5.5,0-7.9-1.8-11.3-4.3
					c-3.9-2.9-8.7-6.5-17.8-6.5s-13.9,3.6-17.8,6.5c-3.4,2.5-5.8,4.3-11.3,4.3c-5.5,0-7.9-1.8-11.3-4.3c-3.9-2.9-8.7-6.5-17.8-6.5
					c-9.1,0-13.9,3.6-17.8,6.5c-3.4,2.5-5.8,4.3-11.3,4.3c-5.5,0-7.9-1.8-11.3-4.3c-2.8-2.1-6.2-4.6-11.3-5.8
					c0.5,4.2,1.2,8.4,2.2,12.6c0.9,0.6,1.7,1.2,2.7,1.9C487.5,107.9,492.3,111.5,501.4,111.5z"/>
			</g>
		</g>
		<g>
			<g>
				<path class="st0" d="M737.1,35.3c9.1,0,13.9-3.6,17.8-6.5c3.4-2.5,5.8-4.3,11.3-4.3c5.5,0,7.9,1.8,11.3,4.3
					c3.9,2.9,8.7,6.5,17.8,6.5c9.1,0,13.9-3.6,17.8-6.5c3.4-2.5,5.8-4.3,11.3-4.3c5.5,0,7.9,1.8,11.3,4.3c3.9,2.9,8.7,6.5,17.8,6.5
					c9.1,0,13.9-3.6,17.8-6.5c3.4-2.5,5.8-4.3,11.3-4.3c5.5,0,7.9,1.8,11.3,4.3c3.9,2.9,8.7,6.5,17.8,6.5s13.9-3.6,17.8-6.5
					c3.4-2.5,5.8-4.3,11.3-4.3c5.5,0,7.9,1.8,11.3,4.3c3.9,2.9,8.7,6.5,17.8,6.5c9.1,0,13.9-3.6,17.8-6.5c0.9-0.7,1.8-1.3,2.7-1.9
					c0.9-4.1,1.6-8.3,2.2-12.6c-5.1,1.2-8.5,3.7-11.3,5.8c-3.4,2.5-5.8,4.3-11.3,4.3c-5.5,0-7.9-1.8-11.3-4.3
					c-3.9-2.9-8.7-6.5-17.8-6.5c-9.1,0-13.9,3.6-17.8,6.5c-3.4,2.5-5.8,4.3-11.3,4.3c-5.5,0-7.9-1.8-11.3-4.3
					c-3.9-2.9-8.7-6.5-17.8-6.5c-9.1,0-13.9,3.6-17.8,6.5c-3.4,2.5-5.8,4.3-11.3,4.3c-5.5,0-7.9-1.8-11.3-4.3
					c-3.9-2.9-8.7-6.5-17.8-6.5s-13.9,3.6-17.8,6.5c-3.4,2.5-5.8,4.3-11.3,4.3c-5.5,0-7.9-1.8-11.3-4.3c-3.9-2.9-8.7-6.5-17.8-6.5
					s-13.9,3.6-17.8,6.5c-3.4,2.5-5.8,4.3-11.3,4.3c-5.5,0-7.9-1.8-11.3-4.3c-2.8-2.1-6.2-4.6-11.3-5.8c0.5,4.2,1.2,8.4,2.2,12.6
					c0.9,0.6,1.7,1.2,2.7,1.9C723.2,31.7,728,35.3,737.1,35.3z"/>
			</g>
			<g>
				<path class="st0" d="M737.1,73.4c9.1,0,13.9-3.6,17.8-6.5c3.4-2.5,5.8-4.3,11.3-4.3c5.5,0,7.9,1.8,11.3,4.3
					c3.9,2.9,8.7,6.5,17.8,6.5c9.1,0,13.9-3.6,17.8-6.5c3.4-2.5,5.8-4.3,11.3-4.3c5.5,0,7.9,1.8,11.3,4.3c3.9,2.9,8.7,6.5,17.8,6.5
					c9.1,0,13.9-3.6,17.8-6.5c3.4-2.5,5.8-4.3,11.3-4.3c5.5,0,7.9,1.8,11.3,4.3c3.9,2.9,8.7,6.5,17.8,6.5s13.9-3.6,17.8-6.5
					c3.4-2.5,5.8-4.3,11.3-4.3c5.5,0,7.9,1.8,11.3,4.3c3.9,2.9,8.7,6.5,17.8,6.5c9.1,0,13.9-3.6,17.8-6.5c0.9-0.7,1.8-1.3,2.7-1.9
					c0.9-4.1,1.6-8.3,2.2-12.6c-5.1,1.2-8.5,3.7-11.3,5.8c-3.4,2.5-5.8,4.3-11.3,4.3c-5.5,0-7.9-1.8-11.3-4.3
					c-3.9-2.9-8.7-6.5-17.8-6.5c-9.1,0-13.9,3.6-17.8,6.5c-3.4,2.5-5.8,4.3-11.3,4.3c-5.5,0-7.9-1.8-11.3-4.3
					c-3.9-2.9-8.7-6.5-17.8-6.5c-9.1,0-13.9,3.6-17.8,6.5c-3.4,2.5-5.8,4.3-11.3,4.3c-5.5,0-7.9-1.8-11.3-4.3
					c-3.9-2.9-8.7-6.5-17.8-6.5s-13.9,3.6-17.8,6.5c-3.4,2.5-5.8,4.3-11.3,4.3c-5.5,0-7.9-1.8-11.3-4.3c-3.9-2.9-8.7-6.5-17.8-6.5
					s-13.9,3.6-17.8,6.5c-3.4,2.5-5.8,4.3-11.3,4.3c-5.5,0-7.9-1.8-11.3-4.3c-2.8-2.1-6.2-4.6-11.3-5.8c0.5,4.2,1.2,8.4,2.2,12.6
					c0.9,0.6,1.7,1.2,2.7,1.9C723.2,69.8,728,73.4,737.1,73.4z"/>
			</g>
			<g>
				<path class="st0" d="M737.1,111.5c9.1,0,13.9-3.6,17.8-6.5c3.4-2.5,5.8-4.3,11.3-4.3c5.5,0,7.9,1.8,11.3,4.3
					c3.9,2.9,8.7,6.5,17.8,6.5c9.1,0,13.9-3.6,17.8-6.5c3.4-2.5,5.8-4.3,11.3-4.3c5.5,0,7.9,1.8,11.3,4.3c3.9,2.9,8.7,6.5,17.8,6.5
					c9.1,0,13.9-3.6,17.8-6.5c3.4-2.5,5.8-4.3,11.3-4.3c5.5,0,7.9,1.8,11.3,4.3c3.9,2.9,8.7,6.5,17.8,6.5s13.9-3.6,17.8-6.5
					c3.4-2.5,5.8-4.3,11.3-4.3c5.5,0,7.9,1.8,11.3,4.3c3.9,2.9,8.7,6.5,17.8,6.5c9.1,0,13.9-3.6,17.8-6.5c0.9-0.7,1.8-1.3,2.7-1.9
					c0.9-4.1,1.6-8.3,2.2-12.6c-5.1,1.2-8.5,3.7-11.3,5.8c-3.4,2.5-5.8,4.3-11.3,4.3c-5.5,0-7.9-1.8-11.3-4.3
					c-3.9-2.9-8.7-6.5-17.8-6.5c-9.1,0-13.9,3.6-17.8,6.5c-3.4,2.5-5.8,4.3-11.3,4.3c-5.5,0-7.9-1.8-11.3-4.3
					c-3.9-2.9-8.7-6.5-17.8-6.5c-9.1,0-13.9,3.6-17.8,6.5c-3.4,2.5-5.8,4.3-11.3,4.3c-5.5,0-7.9-1.8-11.3-4.3
					c-3.9-2.9-8.7-6.5-17.8-6.5s-13.9,3.6-17.8,6.5c-3.4,2.5-5.8,4.3-11.3,4.3c-5.5,0-7.9-1.8-11.3-4.3c-3.9-2.9-8.7-6.5-17.8-6.5
					s-13.9,3.6-17.8,6.5c-3.4,2.5-5.8,4.3-11.3,4.3c-5.5,0-7.9-1.8-11.3-4.3c-2.8-2.1-6.2-4.6-11.3-5.8c0.5,4.2,1.2,8.4,2.2,12.6
					c0.9,0.6,1.7,1.2,2.7,1.9C723.2,107.9,728,111.5,737.1,111.5z"/>
			</g>
		</g>
		<g>
			<g>
				<path class="st0" d="M970.7,35.3c9.1,0,13.9-3.6,17.8-6.5c3.4-2.5,5.8-4.3,11.3-4.3c5.5,0,7.9,1.8,11.3,4.3
					c3.9,2.9,8.7,6.5,17.8,6.5c9.1,0,13.9-3.6,17.8-6.5c3.4-2.5,5.8-4.3,11.3-4.3c5.5,0,7.9,1.8,11.3,4.3c3.9,2.9,8.7,6.5,17.8,6.5
					s13.9-3.6,17.8-6.5c3.4-2.5,5.8-4.3,11.3-4.3s7.9,1.8,11.3,4.3c3.9,2.9,8.7,6.5,17.8,6.5c9.1,0,13.9-3.6,17.8-6.5
					c3.4-2.5,5.8-4.3,11.3-4.3c5.5,0,7.9,1.8,11.3,4.3c3.9,2.9,8.7,6.5,17.8,6.5c9.1,0,13.9-3.6,17.8-6.5c0.9-0.7,1.8-1.3,2.7-1.9
					c0.9-4.1,1.6-8.3,2.2-12.6c-5.1,1.2-8.5,3.7-11.3,5.8c-3.4,2.5-5.8,4.3-11.3,4.3c-5.5,0-7.9-1.8-11.3-4.3
					c-3.9-2.9-8.7-6.5-17.8-6.5c-9.1,0-13.9,3.6-17.8,6.5c-3.4,2.5-5.8,4.3-11.3,4.3c-5.5,0-7.9-1.8-11.3-4.3
					c-3.9-2.9-8.7-6.5-17.8-6.5c-9.1,0-13.9,3.6-17.8,6.5c-3.4,2.5-5.8,4.3-11.3,4.3c-5.5,0-7.9-1.8-11.3-4.3
					c-3.9-2.9-8.7-6.5-17.8-6.5s-13.9,3.6-17.8,6.5c-3.4,2.5-5.8,4.3-11.3,4.3c-5.5,0-7.9-1.8-11.3-4.3c-3.9-2.9-8.7-6.5-17.8-6.5
					s-13.9,3.6-17.8,6.5c-3.4,2.5-5.8,4.3-11.3,4.3c-5.5,0-7.9-1.8-11.3-4.3c-2.8-2.1-6.2-4.6-11.3-5.8c0.5,4.2,1.2,8.4,2.2,12.6
					c0.9,0.6,1.7,1.2,2.7,1.9C956.8,31.7,961.7,35.3,970.7,35.3z"/>
			</g>
			<g>
				<path class="st0" d="M970.7,73.4c9.1,0,13.9-3.6,17.8-6.5c3.4-2.5,5.8-4.3,11.3-4.3c5.5,0,7.9,1.8,11.3,4.3
					c3.9,2.9,8.7,6.5,17.8,6.5c9.1,0,13.9-3.6,17.8-6.5c3.4-2.5,5.8-4.3,11.3-4.3c5.5,0,7.9,1.8,11.3,4.3c3.9,2.9,8.7,6.5,17.8,6.5
					s13.9-3.6,17.8-6.5c3.4-2.5,5.8-4.3,11.3-4.3s7.9,1.8,11.3,4.3c3.9,2.9,8.7,6.5,17.8,6.5c9.1,0,13.9-3.6,17.8-6.5
					c3.4-2.5,5.8-4.3,11.3-4.3c5.5,0,7.9,1.8,11.3,4.3c3.9,2.9,8.7,6.5,17.8,6.5c9.1,0,13.9-3.6,17.8-6.5c0.9-0.7,1.8-1.3,2.7-1.9
					c0.9-4.1,1.6-8.3,2.2-12.6c-5.1,1.2-8.5,3.7-11.3,5.8c-3.4,2.5-5.8,4.3-11.3,4.3c-5.5,0-7.9-1.8-11.3-4.3
					c-3.9-2.9-8.7-6.5-17.8-6.5c-9.1,0-13.9,3.6-17.8,6.5c-3.4,2.5-5.8,4.3-11.3,4.3c-5.5,0-7.9-1.8-11.3-4.3
					c-3.9-2.9-8.7-6.5-17.8-6.5c-9.1,0-13.9,3.6-17.8,6.5c-3.4,2.5-5.8,4.3-11.3,4.3c-5.5,0-7.9-1.8-11.3-4.3
					c-3.9-2.9-8.7-6.5-17.8-6.5s-13.9,3.6-17.8,6.5c-3.4,2.5-5.8,4.3-11.3,4.3c-5.5,0-7.9-1.8-11.3-4.3c-3.9-2.9-8.7-6.5-17.8-6.5
					s-13.9,3.6-17.8,6.5c-3.4,2.5-5.8,4.3-11.3,4.3c-5.5,0-7.9-1.8-11.3-4.3c-2.8-2.1-6.2-4.6-11.3-5.8c0.5,4.2,1.2,8.4,2.2,12.6
					c0.9,0.6,1.7,1.2,2.7,1.9C956.8,69.8,961.7,73.4,970.7,73.4z"/>
			</g>
			<g>
				<path class="st0" d="M970.7,111.5c9.1,0,13.9-3.6,17.8-6.5c3.4-2.5,5.8-4.3,11.3-4.3c5.5,0,7.9,1.8,11.3,4.3
					c3.9,2.9,8.7,6.5,17.8,6.5c9.1,0,13.9-3.6,17.8-6.5c3.4-2.5,5.8-4.3,11.3-4.3c5.5,0,7.9,1.8,11.3,4.3c3.9,2.9,8.7,6.5,17.8,6.5
					s13.9-3.6,17.8-6.5c3.4-2.5,5.8-4.3,11.3-4.3s7.9,1.8,11.3,4.3c3.9,2.9,8.7,6.5,17.8,6.5c9.1,0,13.9-3.6,17.8-6.5
					c3.4-2.5,5.8-4.3,11.3-4.3c5.5,0,7.9,1.8,11.3,4.3c3.9,2.9,8.7,6.5,17.8,6.5c9.1,0,13.9-3.6,17.8-6.5c0.9-0.7,1.8-1.3,2.7-1.9
					c0.9-4.1,1.6-8.3,2.2-12.6c-5.1,1.2-8.5,3.7-11.3,5.8c-3.4,2.5-5.8,4.3-11.3,4.3c-5.5,0-7.9-1.8-11.3-4.3
					c-3.9-2.9-8.7-6.5-17.8-6.5c-9.1,0-13.9,3.6-17.8,6.5c-3.4,2.5-5.8,4.3-11.3,4.3c-5.5,0-7.9-1.8-11.3-4.3
					c-3.9-2.9-8.7-6.5-17.8-6.5c-9.1,0-13.9,3.6-17.8,6.5c-3.4,2.5-5.8,4.3-11.3,4.3c-5.5,0-7.9-1.8-11.3-4.3
					c-3.9-2.9-8.7-6.5-17.8-6.5s-13.9,3.6-17.8,6.5c-3.4,2.5-5.8,4.3-11.3,4.3c-5.5,0-7.9-1.8-11.3-4.3c-3.9-2.9-8.7-6.5-17.8-6.5
					s-13.9,3.6-17.8,6.5c-3.4,2.5-5.8,4.3-11.3,4.3c-5.5,0-7.9-1.8-11.3-4.3c-2.8-2.1-6.2-4.6-11.3-5.8c0.5,4.2,1.2,8.4,2.2,12.6
					c0.9,0.6,1.7,1.2,2.7,1.9C956.8,107.9,961.7,111.5,970.7,111.5z"/>
			</g>
		</g>
		<g>
			<g>
				<path class="st0" d="M1206.5,35.3c9.1,0,13.9-3.6,17.8-6.5c3.4-2.5,5.8-4.3,11.3-4.3s7.9,1.8,11.3,4.3c3.9,2.9,8.7,6.5,17.8,6.5
					c9.1,0,13.9-3.6,17.8-6.5c3.4-2.5,5.8-4.3,11.3-4.3c5.5,0,7.9,1.8,11.3,4.3c3.9,2.9,8.7,6.5,17.8,6.5s13.9-3.6,17.8-6.5
					c3.4-2.5,5.8-4.3,11.3-4.3c5.5,0,7.9,1.8,11.3,4.3c3.9,2.9,8.7,6.5,17.8,6.5s13.9-3.6,17.8-6.5c3.4-2.5,5.8-4.3,11.3-4.3
					c5.5,0,7.9,1.8,11.3,4.3c3.9,2.9,8.7,6.5,17.8,6.5c9.1,0,13.9-3.6,17.8-6.5c0.9-0.7,1.8-1.3,2.7-1.9c0.9-4.1,1.6-8.3,2.2-12.6
					c-5.1,1.2-8.5,3.7-11.3,5.8c-3.4,2.5-5.8,4.3-11.3,4.3c-5.5,0-7.9-1.8-11.3-4.3c-3.9-2.9-8.7-6.5-17.8-6.5
					c-9.1,0-13.9,3.6-17.8,6.5c-3.4,2.5-5.8,4.3-11.3,4.3s-7.9-1.8-11.3-4.3c-3.9-2.9-8.7-6.5-17.8-6.5c-9.1,0-13.9,3.6-17.8,6.5
					c-3.4,2.5-5.8,4.3-11.3,4.3c-5.5,0-7.9-1.8-11.3-4.3c-3.9-2.9-8.7-6.5-17.8-6.5s-13.9,3.6-17.8,6.5c-3.4,2.5-5.8,4.3-11.3,4.3
					c-5.5,0-7.9-1.8-11.3-4.3c-3.9-2.9-8.7-6.5-17.8-6.5s-13.9,3.6-17.8,6.5c-3.4,2.5-5.8,4.3-11.3,4.3c-5.5,0-7.9-1.8-11.3-4.3
					c-2.8-2.1-6.2-4.6-11.3-5.8c0.5,4.2,1.2,8.4,2.2,12.6c0.9,0.6,1.7,1.2,2.7,1.9C1192.6,31.7,1197.4,35.3,1206.5,35.3z"/>
			</g>
			<g>
				<path class="st0" d="M1206.5,73.4c9.1,0,13.9-3.6,17.8-6.5c3.4-2.5,5.8-4.3,11.3-4.3s7.9,1.8,11.3,4.3c3.9,2.9,8.7,6.5,17.8,6.5
					c9.1,0,13.9-3.6,17.8-6.5c3.4-2.5,5.8-4.3,11.3-4.3c5.5,0,7.9,1.8,11.3,4.3c3.9,2.9,8.7,6.5,17.8,6.5s13.9-3.6,17.8-6.5
					c3.4-2.5,5.8-4.3,11.3-4.3c5.5,0,7.9,1.8,11.3,4.3c3.9,2.9,8.7,6.5,17.8,6.5s13.9-3.6,17.8-6.5c3.4-2.5,5.8-4.3,11.3-4.3
					c5.5,0,7.9,1.8,11.3,4.3c3.9,2.9,8.7,6.5,17.8,6.5c9.1,0,13.9-3.6,17.8-6.5c0.9-0.7,1.8-1.3,2.7-1.9c0.9-4.1,1.6-8.3,2.2-12.6
					c-5.1,1.2-8.5,3.7-11.3,5.8c-3.4,2.5-5.8,4.3-11.3,4.3c-5.5,0-7.9-1.8-11.3-4.3c-3.9-2.9-8.7-6.5-17.8-6.5
					c-9.1,0-13.9,3.6-17.8,6.5c-3.4,2.5-5.8,4.3-11.3,4.3s-7.9-1.8-11.3-4.3c-3.9-2.9-8.7-6.5-17.8-6.5c-9.1,0-13.9,3.6-17.8,6.5
					c-3.4,2.5-5.8,4.3-11.3,4.3c-5.5,0-7.9-1.8-11.3-4.3c-3.9-2.9-8.7-6.5-17.8-6.5s-13.9,3.6-17.8,6.5c-3.4,2.5-5.8,4.3-11.3,4.3
					c-5.5,0-7.9-1.8-11.3-4.3c-3.9-2.9-8.7-6.5-17.8-6.5s-13.9,3.6-17.8,6.5c-3.4,2.5-5.8,4.3-11.3,4.3c-5.5,0-7.9-1.8-11.3-4.3
					c-2.8-2.1-6.2-4.6-11.3-5.8c0.5,4.2,1.2,8.4,2.2,12.6c0.9,0.6,1.7,1.2,2.7,1.9C1192.6,69.8,1197.4,73.4,1206.5,73.4z"/>
			</g>
			<g>
				<path class="st0" d="M1206.5,111.5c9.1,0,13.9-3.6,17.8-6.5c3.4-2.5,5.8-4.3,11.3-4.3s7.9,1.8,11.3,4.3
					c3.9,2.9,8.7,6.5,17.8,6.5c9.1,0,13.9-3.6,17.8-6.5c3.4-2.5,5.8-4.3,11.3-4.3c5.5,0,7.9,1.8,11.3,4.3c3.9,2.9,8.7,6.5,17.8,6.5
					s13.9-3.6,17.8-6.5c3.4-2.5,5.8-4.3,11.3-4.3c5.5,0,7.9,1.8,11.3,4.3c3.9,2.9,8.7,6.5,17.8,6.5s13.9-3.6,17.8-6.5
					c3.4-2.5,5.8-4.3,11.3-4.3c5.5,0,7.9,1.8,11.3,4.3c3.9,2.9,8.7,6.5,17.8,6.5c9.1,0,13.9-3.6,17.8-6.5c0.9-0.7,1.8-1.3,2.7-1.9
					c0.9-4.1,1.6-8.3,2.2-12.6c-5.1,1.2-8.5,3.7-11.3,5.8c-3.4,2.5-5.8,4.3-11.3,4.3c-5.5,0-7.9-1.8-11.3-4.3
					c-3.9-2.9-8.7-6.5-17.8-6.5c-9.1,0-13.9,3.6-17.8,6.5c-3.4,2.5-5.8,4.3-11.3,4.3s-7.9-1.8-11.3-4.3c-3.9-2.9-8.7-6.5-17.8-6.5
					c-9.1,0-13.9,3.6-17.8,6.5c-3.4,2.5-5.8,4.3-11.3,4.3c-5.5,0-7.9-1.8-11.3-4.3c-3.9-2.9-8.7-6.5-17.8-6.5s-13.9,3.6-17.8,6.5
					c-3.4,2.5-5.8,4.3-11.3,4.3c-5.5,0-7.9-1.8-11.3-4.3c-3.9-2.9-8.7-6.5-17.8-6.5s-13.9,3.6-17.8,6.5c-3.4,2.5-5.8,4.3-11.3,4.3
					c-5.5,0-7.9-1.8-11.3-4.3c-2.8-2.1-6.2-4.6-11.3-5.8c0.5,4.2,1.2,8.4,2.2,12.6c0.9,0.6,1.7,1.2,2.7,1.9
					C1192.6,107.9,1197.4,111.5,1206.5,111.5z"/>
			</g>
		</g>
		<g>
			<g>
				<path class="st0" d="M1440.1,35.3c9.1,0,13.9-3.6,17.8-6.5c3.4-2.5,5.8-4.3,11.3-4.3c5.5,0,7.9,1.8,11.3,4.3
					c3.9,2.9,8.7,6.5,17.8,6.5c9.1,0,13.9-3.6,17.8-6.5c3.4-2.5,5.8-4.3,11.3-4.3c5.5,0,7.9,1.8,11.3,4.3c3.9,2.9,8.7,6.5,17.8,6.5
					s13.9-3.6,17.8-6.5c3.4-2.5,5.8-4.3,11.3-4.3s7.9,1.8,11.3,4.3c3.9,2.9,8.7,6.5,17.8,6.5s13.9-3.6,17.8-6.5
					c3.4-2.5,5.8-4.3,11.3-4.3c5.5,0,7.9,1.8,11.3,4.3c3.9,2.9,8.7,6.5,17.8,6.5c9.1,0,13.9-3.6,17.8-6.5c0.9-0.7,1.8-1.3,2.7-1.9
					c0.9-4.1,1.6-8.3,2.2-12.6c-5.1,1.2-8.5,3.7-11.3,5.8c-3.4,2.5-5.8,4.3-11.3,4.3c-5.5,0-7.9-1.8-11.3-4.3
					c-3.9-2.9-8.7-6.5-17.8-6.5c-9.1,0-13.9,3.6-17.8,6.5c-3.4,2.5-5.8,4.3-11.3,4.3c-5.5,0-7.9-1.8-11.3-4.3
					c-3.9-2.9-8.7-6.5-17.8-6.5c-9.1,0-13.9,3.6-17.8,6.5c-3.4,2.5-5.8,4.3-11.3,4.3c-5.5,0-7.9-1.8-11.3-4.3
					c-3.9-2.9-8.7-6.5-17.8-6.5s-13.9,3.6-17.8,6.5c-3.4,2.5-5.8,4.3-11.3,4.3c-5.5,0-7.9-1.8-11.3-4.3c-3.9-2.9-8.7-6.5-17.8-6.5
					s-13.9,3.6-17.8,6.5c-3.4,2.5-5.8,4.3-11.3,4.3c-5.5,0-7.9-1.8-11.3-4.3c-2.8-2.1-6.2-4.6-11.3-5.8c0.5,4.2,1.2,8.4,2.2,12.6
					c0.9,0.6,1.7,1.2,2.7,1.9C1426.2,31.7,1431,35.3,1440.1,35.3z"/>
			</g>
			<g>
				<path class="st0" d="M1440.1,73.4c9.1,0,13.9-3.6,17.8-6.5c3.4-2.5,5.8-4.3,11.3-4.3c5.5,0,7.9,1.8,11.3,4.3
					c3.9,2.9,8.7,6.5,17.8,6.5c9.1,0,13.9-3.6,17.8-6.5c3.4-2.5,5.8-4.3,11.3-4.3c5.5,0,7.9,1.8,11.3,4.3c3.9,2.9,8.7,6.5,17.8,6.5
					s13.9-3.6,17.8-6.5c3.4-2.5,5.8-4.3,11.3-4.3s7.9,1.8,11.3,4.3c3.9,2.9,8.7,6.5,17.8,6.5s13.9-3.6,17.8-6.5
					c3.4-2.5,5.8-4.3,11.3-4.3c5.5,0,7.9,1.8,11.3,4.3c3.9,2.9,8.7,6.5,17.8,6.5c9.1,0,13.9-3.6,17.8-6.5c0.9-0.7,1.8-1.3,2.7-1.9
					c0.9-4.1,1.6-8.3,2.2-12.6c-5.1,1.2-8.5,3.7-11.3,5.8c-3.4,2.5-5.8,4.3-11.3,4.3c-5.5,0-7.9-1.8-11.3-4.3
					c-3.9-2.9-8.7-6.5-17.8-6.5c-9.1,0-13.9,3.6-17.8,6.5c-3.4,2.5-5.8,4.3-11.3,4.3c-5.5,0-7.9-1.8-11.3-4.3
					c-3.9-2.9-8.7-6.5-17.8-6.5c-9.1,0-13.9,3.6-17.8,6.5c-3.4,2.5-5.8,4.3-11.3,4.3c-5.5,0-7.9-1.8-11.3-4.3
					c-3.9-2.9-8.7-6.5-17.8-6.5s-13.9,3.6-17.8,6.5c-3.4,2.5-5.8,4.3-11.3,4.3c-5.5,0-7.9-1.8-11.3-4.3c-3.9-2.9-8.7-6.5-17.8-6.5
					s-13.9,3.6-17.8,6.5c-3.4,2.5-5.8,4.3-11.3,4.3c-5.5,0-7.9-1.8-11.3-4.3c-2.8-2.1-6.2-4.6-11.3-5.8c0.5,4.2,1.2,8.4,2.2,12.6
					c0.9,0.6,1.7,1.2,2.7,1.9C1426.2,69.8,1431,73.4,1440.1,73.4z"/>
			</g>
			<g>
				<path class="st0" d="M1440.1,111.5c9.1,0,13.9-3.6,17.8-6.5c3.4-2.5,5.8-4.3,11.3-4.3c5.5,0,7.9,1.8,11.3,4.3
					c3.9,2.9,8.7,6.5,17.8,6.5c9.1,0,13.9-3.6,17.8-6.5c3.4-2.5,5.8-4.3,11.3-4.3c5.5,0,7.9,1.8,11.3,4.3c3.9,2.9,8.7,6.5,17.8,6.5
					s13.9-3.6,17.8-6.5c3.4-2.5,5.8-4.3,11.3-4.3s7.9,1.8,11.3,4.3c3.9,2.9,8.7,6.5,17.8,6.5s13.9-3.6,17.8-6.5
					c3.4-2.5,5.8-4.3,11.3-4.3c5.5,0,7.9,1.8,11.3,4.3c3.9,2.9,8.7,6.5,17.8,6.5c9.1,0,13.9-3.6,17.8-6.5c0.9-0.7,1.8-1.3,2.7-1.9
					c0.9-4.1,1.6-8.3,2.2-12.6c-5.1,1.2-8.5,3.7-11.3,5.8c-3.4,2.5-5.8,4.3-11.3,4.3c-5.5,0-7.9-1.8-11.3-4.3
					c-3.9-2.9-8.7-6.5-17.8-6.5c-9.1,0-13.9,3.6-17.8,6.5c-3.4,2.5-5.8,4.3-11.3,4.3c-5.5,0-7.9-1.8-11.3-4.3
					c-3.9-2.9-8.7-6.5-17.8-6.5c-9.1,0-13.9,3.6-17.8,6.5c-3.4,2.5-5.8,4.3-11.3,4.3c-5.5,0-7.9-1.8-11.3-4.3
					c-3.9-2.9-8.7-6.5-17.8-6.5s-13.9,3.6-17.8,6.5c-3.4,2.5-5.8,4.3-11.3,4.3c-5.5,0-7.9-1.8-11.3-4.3c-3.9-2.9-8.7-6.5-17.8-6.5
					s-13.9,3.6-17.8,6.5c-3.4,2.5-5.8,4.3-11.3,4.3c-5.5,0-7.9-1.8-11.3-4.3c-2.8-2.1-6.2-4.6-11.3-5.8c0.5,4.2,1.2,8.4,2.2,12.6
					c0.9,0.6,1.7,1.2,2.7,1.9C1426.2,107.9,1431,111.5,1440.1,111.5z"/>
			</g>
		</g>
		<g>
			<g>
				<path class="st0" d="M1675.8,35.3c9.1,0,13.9-3.6,17.8-6.5c3.4-2.5,5.8-4.3,11.3-4.3s7.9,1.8,11.3,4.3c3.9,2.9,8.7,6.5,17.8,6.5
					c9.1,0,13.9-3.6,17.8-6.5c3.4-2.5,5.8-4.3,11.3-4.3c5.5,0,7.9,1.8,11.3,4.3c3.9,2.9,8.7,6.5,17.8,6.5c9.1,0,13.9-3.6,17.8-6.5
					c3.4-2.5,5.8-4.3,11.3-4.3c5.5,0,7.9,1.8,11.3,4.3c3.9,2.9,8.7,6.5,17.8,6.5s13.9-3.6,17.8-6.5c3.4-2.5,5.8-4.3,11.3-4.3
					c5.5,0,7.9,1.8,11.3,4.3c3.9,2.9,8.7,6.5,17.8,6.5c9.1,0,13.9-3.6,17.8-6.5c0.9-0.7,1.8-1.3,2.7-1.9c0.9-4.1,1.6-8.3,2.2-12.6
					c-5.1,1.2-8.5,3.7-11.3,5.8c-3.4,2.5-5.8,4.3-11.3,4.3c-5.5,0-7.9-1.8-11.3-4.3c-3.9-2.9-8.7-6.5-17.8-6.5
					c-9.1,0-13.9,3.6-17.8,6.5c-3.4,2.5-5.8,4.3-11.3,4.3s-7.9-1.8-11.3-4.3c-3.9-2.9-8.7-6.5-17.8-6.5c-9.1,0-13.9,3.6-17.8,6.5
					c-3.4,2.5-5.8,4.3-11.3,4.3c-5.5,0-7.9-1.8-11.3-4.3c-3.9-2.9-8.7-6.5-17.8-6.5s-13.9,3.6-17.8,6.5c-3.4,2.5-5.8,4.3-11.3,4.3
					c-5.5,0-7.9-1.8-11.3-4.3c-3.9-2.9-8.7-6.5-17.8-6.5s-13.9,3.6-17.8,6.5c-3.4,2.5-5.8,4.3-11.3,4.3c-5.5,0-7.9-1.8-11.3-4.3
					c-2.8-2.1-6.2-4.6-11.3-5.8c0.5,4.2,1.2,8.4,2.2,12.6c0.9,0.6,1.7,1.2,2.7,1.9C1661.9,31.7,1666.7,35.3,1675.8,35.3z"/>
			</g>
			<g>
				<path class="st0" d="M1675.8,73.4c9.1,0,13.9-3.6,17.8-6.5c3.4-2.5,5.8-4.3,11.3-4.3s7.9,1.8,11.3,4.3c3.9,2.9,8.7,6.5,17.8,6.5
					c9.1,0,13.9-3.6,17.8-6.5c3.4-2.5,5.8-4.3,11.3-4.3c5.5,0,7.9,1.8,11.3,4.3c3.9,2.9,8.7,6.5,17.8,6.5c9.1,0,13.9-3.6,17.8-6.5
					c3.4-2.5,5.8-4.3,11.3-4.3c5.5,0,7.9,1.8,11.3,4.3c3.9,2.9,8.7,6.5,17.8,6.5s13.9-3.6,17.8-6.5c3.4-2.5,5.8-4.3,11.3-4.3
					c5.5,0,7.9,1.8,11.3,4.3c3.9,2.9,8.7,6.5,17.8,6.5c9.1,0,13.9-3.6,17.8-6.5c0.9-0.7,1.8-1.3,2.7-1.9c0.9-4.1,1.6-8.3,2.2-12.6
					c-5.1,1.2-8.5,3.7-11.3,5.8c-3.4,2.5-5.8,4.3-11.3,4.3c-5.5,0-7.9-1.8-11.3-4.3c-3.9-2.9-8.7-6.5-17.8-6.5
					c-9.1,0-13.9,3.6-17.8,6.5c-3.4,2.5-5.8,4.3-11.3,4.3s-7.9-1.8-11.3-4.3c-3.9-2.9-8.7-6.5-17.8-6.5c-9.1,0-13.9,3.6-17.8,6.5
					c-3.4,2.5-5.8,4.3-11.3,4.3c-5.5,0-7.9-1.8-11.3-4.3c-3.9-2.9-8.7-6.5-17.8-6.5s-13.9,3.6-17.8,6.5c-3.4,2.5-5.8,4.3-11.3,4.3
					c-5.5,0-7.9-1.8-11.3-4.3c-3.9-2.9-8.7-6.5-17.8-6.5s-13.9,3.6-17.8,6.5c-3.4,2.5-5.8,4.3-11.3,4.3c-5.5,0-7.9-1.8-11.3-4.3
					c-2.8-2.1-6.2-4.6-11.3-5.8c0.5,4.2,1.2,8.4,2.2,12.6c0.9,0.6,1.7,1.2,2.7,1.9C1661.9,69.8,1666.7,73.4,1675.8,73.4z"/>
			</g>
			<g>
				<path class="st0" d="M1675.8,111.5c9.1,0,13.9-3.6,17.8-6.5c3.4-2.5,5.8-4.3,11.3-4.3s7.9,1.8,11.3,4.3
					c3.9,2.9,8.7,6.5,17.8,6.5c9.1,0,13.9-3.6,17.8-6.5c3.4-2.5,5.8-4.3,11.3-4.3c5.5,0,7.9,1.8,11.3,4.3c3.9,2.9,8.7,6.5,17.8,6.5
					c9.1,0,13.9-3.6,17.8-6.5c3.4-2.5,5.8-4.3,11.3-4.3c5.5,0,7.9,1.8,11.3,4.3c3.9,2.9,8.7,6.5,17.8,6.5s13.9-3.6,17.8-6.5
					c3.4-2.5,5.8-4.3,11.3-4.3c5.5,0,7.9,1.8,11.3,4.3c3.9,2.9,8.7,6.5,17.8,6.5c9.1,0,13.9-3.6,17.8-6.5c0.9-0.7,1.8-1.3,2.7-1.9
					c0.9-4.1,1.6-8.3,2.2-12.6c-5.1,1.2-8.5,3.7-11.3,5.8c-3.4,2.5-5.8,4.3-11.3,4.3c-5.5,0-7.9-1.8-11.3-4.3
					c-3.9-2.9-8.7-6.5-17.8-6.5c-9.1,0-13.9,3.6-17.8,6.5c-3.4,2.5-5.8,4.3-11.3,4.3s-7.9-1.8-11.3-4.3c-3.9-2.9-8.7-6.5-17.8-6.5
					c-9.1,0-13.9,3.6-17.8,6.5c-3.4,2.5-5.8,4.3-11.3,4.3c-5.5,0-7.9-1.8-11.3-4.3c-3.9-2.9-8.7-6.5-17.8-6.5s-13.9,3.6-17.8,6.5
					c-3.4,2.5-5.8,4.3-11.3,4.3c-5.5,0-7.9-1.8-11.3-4.3c-3.9-2.9-8.7-6.5-17.8-6.5s-13.9,3.6-17.8,6.5c-3.4,2.5-5.8,4.3-11.3,4.3
					c-5.5,0-7.9-1.8-11.3-4.3c-2.8-2.1-6.2-4.6-11.3-5.8c0.5,4.2,1.2,8.4,2.2,12.6c0.9,0.6,1.7,1.2,2.7,1.9
					C1661.9,107.9,1666.7,111.5,1675.8,111.5z"/>
			</g>
		</g>
	</g>
</g>
</svg>
